# Blender v2.78 (sub 0) OBJ File: 'tardis_exterior.blend'
# www.blender.org
mtllib tardis_door_right.mtl
o Exterior.002_Cube.004
v 0.109059 0.105581 0.023530
v 0.688071 1.677981 0.028466
v 0.128529 1.677981 0.028466
v 0.690271 0.808061 0.025735
v 0.806427 0.691761 -0.010316
v 0.122491 0.808061 0.025735
v 0.104079 2.466922 0.030942
v 0.691667 1.441038 0.027722
v 0.128529 1.677858 0.067580
v 0.129795 2.251927 0.069382
v 0.808337 1.557450 0.028087
v 0.122491 0.807935 0.065877
v 0.690271 0.807935 0.065877
v 0.804904 0.001052 0.023201
v 0.811761 3.109666 0.032960
v 0.717211 3.015224 0.064844
v 0.716001 2.466821 0.063123
v 0.810995 2.762514 0.031871
v 0.104719 2.757039 0.031853
v 0.716641 2.757039 0.031853
v 0.104719 2.756938 0.064033
v 0.716590 2.733644 0.063960
v 0.104667 2.733744 0.031780
v 0.479509 2.252050 0.030268
v 0.477353 0.808061 0.025735
v 0.478750 1.440912 0.067864
v 0.477353 0.807935 0.065877
v 0.479837 0.587119 0.025041
v 0.479837 0.587048 0.047590
v 0.487740 3.015325 0.032664
v 0.487740 3.015224 0.064844
v 0.487170 2.756938 0.064034
v 0.487119 2.733643 0.063960
v 0.454529 2.252050 0.030268
v 0.453402 1.441038 0.027722
v 0.452006 0.808061 0.025735
v 0.452366 0.105581 0.023530
v 0.453428 0.587119 0.025041
v 0.453428 0.587048 0.047590
v 0.459212 2.466922 0.030942
v 0.460422 3.015224 0.064844
v 0.459801 2.733643 0.063960
v 0.293637 1.441038 0.027722
v 0.292241 0.808061 0.025735
v 0.293637 1.440912 0.067864
v 0.292241 0.807935 0.065877
v 0.288236 3.015325 0.032664
v 0.287026 2.466922 0.030942
v 0.288236 3.015224 0.064844
v 0.287666 2.756938 0.064033
v 0.287615 2.733643 0.063960
v 0.266295 1.677981 0.028466
v 0.266295 1.677858 0.067580
v 0.263681 1.441038 0.027722
v 0.262285 0.807935 0.065877
v 0.254704 0.105581 0.023530
v 0.255767 0.587119 0.025041
v 0.254704 0.105511 0.046078
v 0.255951 3.015224 0.064844
v 0.104667 2.733760 0.026940
v 0.104719 2.757054 0.027013
v 0.487170 2.757054 0.027014
v 0.459212 2.466938 0.026103
v 0.486530 2.466938 0.026103
v 0.287666 2.757054 0.027014
v 0.255381 2.757054 0.027014
v 0.255330 2.733760 0.026940
v 0.105288 3.015325 0.032664
v 0.700604 0.105581 0.023530
v 0.717211 3.015325 0.032664
v 0.804904 0.001164 -0.012484
v 0.811761 3.109778 -0.002725
v 0.129795 2.252050 0.030268
v 0.689337 2.252050 0.030268
v 0.810135 2.372693 -0.005039
v 0.808337 1.557562 -0.007598
v 0.123887 1.441038 0.027722
v 0.716001 2.466922 0.030943
v 0.689337 2.251927 0.069382
v 0.688071 1.677858 0.067580
v 0.110121 0.587119 0.025041
v 0.007731 1.557450 0.028087
v 0.701666 0.587119 0.025041
v 0.123887 1.440912 0.067864
v 0.691667 1.440912 0.067864
v 0.004297 0.001052 0.023201
v 0.806427 0.691649 0.025369
v 0.005821 0.691649 0.025369
v 0.109059 0.105511 0.046078
v 0.700604 0.105511 0.046078
v 0.701666 0.587048 0.047590
v 0.110121 0.587048 0.047590
v 0.009529 2.372581 0.030646
v 0.011155 3.109666 0.032960
v 0.810135 2.372581 0.030646
v 0.104079 2.466821 0.063123
v 0.105288 3.015224 0.064844
v 0.010389 2.762514 0.031870
v 0.810995 2.762626 -0.003814
v 0.716641 2.756938 0.064034
v 0.810926 2.731206 0.031772
v 0.810926 2.731318 -0.003913
v 0.716590 2.733745 0.031780
v 0.010320 2.731206 0.031772
v 0.104667 2.733643 0.063960
v 0.504676 0.001052 0.023201
v 0.511534 3.109666 0.032960
v 0.509908 2.372581 0.030646
v 0.508110 1.557450 0.028087
v 0.506200 0.691649 0.025369
v 0.478243 1.677981 0.028466
v 0.479509 2.251927 0.069382
v 0.478243 1.677858 0.067580
v 0.478750 1.441038 0.027722
v 0.478774 0.105581 0.023530
v 0.478774 0.105511 0.046078
v 0.486530 2.466922 0.030942
v 0.486530 2.466821 0.063123
v 0.468935 0.001052 0.023201
v 0.475792 3.109666 0.032960
v 0.474167 2.372581 0.030646
v 0.472368 1.557450 0.028087
v 0.470459 0.691649 0.025369
v 0.453263 1.677981 0.028466
v 0.454529 2.251927 0.069382
v 0.453263 1.677858 0.067580
v 0.453402 1.440912 0.067864
v 0.452006 0.807935 0.065877
v 0.452366 0.105511 0.046078
v 0.460422 3.015325 0.032664
v 0.459212 2.466821 0.063123
v 0.459852 2.756938 0.064034
v 0.243656 0.001052 0.023201
v 0.250513 3.109666 0.032960
v 0.248887 2.372581 0.030646
v 0.247089 1.557450 0.028087
v 0.245180 0.691649 0.025369
v 0.297082 2.252050 0.030268
v 0.295816 1.677981 0.028466
v 0.297082 2.251927 0.069382
v 0.295816 1.677858 0.067580
v 0.285914 0.105581 0.023530
v 0.286976 0.587119 0.025041
v 0.285914 0.105511 0.046078
v 0.286976 0.587048 0.047590
v 0.287026 2.466821 0.063123
v 0.201416 0.001052 0.023201
v 0.208274 3.109666 0.032960
v 0.206648 2.372581 0.030646
v 0.204850 1.557450 0.028087
v 0.202940 0.691649 0.025369
v 0.267561 2.252050 0.030268
v 0.267561 2.251927 0.069382
v 0.262285 0.808061 0.025735
v 0.263681 1.440912 0.067864
v 0.255767 0.587048 0.047590
v 0.255951 3.015325 0.032664
v 0.254741 2.466922 0.030942
v 0.254741 2.466821 0.063123
v 0.255381 2.756938 0.064033
v 0.255330 2.733643 0.063960
v 0.716641 2.757054 0.027014
v 0.716590 2.733760 0.026941
v 0.487119 2.733760 0.026941
v 0.460422 3.015340 0.027825
v 0.487740 3.015340 0.027825
v 0.459852 2.757054 0.027014
v 0.459801 2.733760 0.026941
v 0.287615 2.733760 0.026940
v 0.255951 3.015340 0.027824
v 0.288236 3.015340 0.027824
v 0.254741 2.466938 0.026103
v 0.287026 2.466938 0.026103
v 0.826863 0.001164 -0.012484
v 0.833720 3.109778 -0.002725
v 0.832094 2.372693 -0.005039
v 0.830296 1.557562 -0.007598
v 0.828386 0.691761 -0.010316
v 0.832954 2.762626 -0.003814
v 0.832885 2.731318 -0.003913
v 0.804904 0.001052 0.073201
v 0.811761 3.109666 0.082960
v 0.004297 0.001052 0.073201
v 0.011155 3.109666 0.082960
v 0.175211 1.729980 0.063939
v 0.176248 2.199829 0.065414
v 0.462472 2.199829 0.065414
v 0.634207 2.199829 0.065414
v 0.633171 1.729980 0.063939
v 0.461436 1.729980 0.063939
v 0.442028 2.199829 0.065414
v 0.440992 1.729980 0.063939
v 0.313165 2.199829 0.065414
v 0.312128 1.729980 0.063939
v 0.289003 2.199829 0.065414
v 0.287967 1.729980 0.063939
vn -0.0000 1.0000 0.0031
vn -1.0000 0.0022 0.0000
vn 0.0000 -1.0000 -0.0031
vn 1.0000 -0.0022 -0.0000
vn 0.0000 -1.0000 -0.0032
vn 0.0000 0.0031 -1.0000
vn 0.0000 -0.0031 1.0000
vn 0.0000 1.0000 0.0000
vn 0.0000 -1.0000 0.0000
vn 0.0690 0.0030 -0.9976
vn 0.0000 0.0759 -0.9971
vn 0.0000 -0.0697 -0.9976
vn -0.0814 0.0033 -0.9967
usemtl Wood
s off
f 158//1 96//1 159//1
f 15//2 99//2 18//2
f 95//2 76//2 11//2
f 52//1 9//1 53//1
f 8//3 26//3 114//3
f 11//2 5//2 87//2
f 87//2 71//2 14//2
f 1//4 92//4 89//4
f 74//3 112//3 24//3
f 2//2 79//2 74//2
f 3//4 10//4 9//4
f 4//2 85//2 8//2
f 77//4 12//4 6//4
f 154//1 12//1 55//1
f 1//1 58//1 56//1
f 83//3 29//3 28//3
f 69//2 91//2 83//2
f 70//3 31//3 30//3
f 78//2 22//2 103//2
f 19//4 97//4 21//4
f 20//2 16//2 70//2
f 33//4 64//4 164//4
f 18//2 102//2 101//2
f 101//2 75//2 95//2
f 7//4 105//4 96//4
f 161//2 172//2 159//2
f 49//4 65//4 171//4
f 100//1 62//1 32//1
f 28//3 39//3 38//3
f 115//1 90//1 69//1
f 4//1 27//1 13//1
f 24//3 125//3 34//3
f 114//3 127//3 35//3
f 111//1 80//1 2//1
f 78//1 118//1 17//1
f 35//3 45//3 43//3
f 34//3 140//3 138//3
f 38//3 145//3 143//3
f 130//3 49//3 47//3
f 51//5 168//5 42//5
f 37//1 116//1 115//1
f 36//1 27//1 25//1
f 111//1 126//1 113//1
f 59//2 66//2 160//2
f 50//1 167//1 65//1
f 143//3 156//3 57//3
f 138//3 153//3 152//3
f 43//3 155//3 54//3
f 142//1 129//1 37//1
f 44//1 128//1 36//1
f 139//1 126//1 124//1
f 40//1 146//1 131//1
f 54//3 84//3 77//3
f 152//3 10//3 73//3
f 57//3 92//3 81//3
f 51//4 173//4 169//4
f 56//1 144//1 142//1
f 154//1 46//1 44//1
f 52//1 141//1 139//1
f 41//2 167//2 132//2
f 33//3 163//3 22//3
f 31//4 62//4 166//4
f 42//2 63//2 131//2
f 21//1 66//1 61//1
f 105//3 67//3 161//3
f 3//6 93//6 73//6
f 73//6 149//6 152//6
f 74//6 11//6 2//6
f 2//6 109//6 111//6
f 6//6 82//6 77//6
f 77//6 150//6 54//6
f 8//6 87//6 4//6
f 4//6 110//6 25//6
f 26//6 13//6 27//6
f 69//6 106//6 115//6
f 83//6 14//6 69//6
f 1//6 88//6 81//6
f 81//6 151//6 57//6
f 29//6 90//6 116//6
f 7//6 104//6 23//6
f 68//6 148//6 157//6
f 70//6 18//6 20//6
f 78//6 108//6 117//6
f 20//6 101//6 103//6
f 68//6 98//6 94//6
f 78//6 101//6 95//6
f 19//6 104//6 98//6
f 117//6 121//6 40//6
f 70//6 107//6 15//6
f 39//6 116//6 129//6
f 83//6 110//6 87//6
f 115//6 119//6 37//6
f 127//6 27//6 128//6
f 25//6 123//6 36//6
f 8//6 109//6 11//6
f 111//6 122//6 124//6
f 74//6 108//6 95//6
f 139//6 122//6 136//6
f 44//6 123//6 137//6
f 45//6 128//6 46//6
f 142//6 119//6 133//6
f 145//6 129//6 144//6
f 48//6 121//6 135//6
f 30//6 120//6 107//6
f 28//6 123//6 110//6
f 114//6 122//6 109//6
f 24//6 121//6 108//6
f 158//6 135//6 149//6
f 156//6 144//6 58//6
f 56//6 133//6 147//6
f 155//6 46//6 55//6
f 154//6 137//6 151//6
f 52//6 136//6 150//6
f 47//6 120//6 130//6
f 143//6 123//6 38//6
f 43//6 122//6 35//6
f 138//6 121//6 34//6
f 3//6 150//6 82//6
f 6//6 151//6 88//6
f 84//6 55//6 12//6
f 1//6 147//6 86//6
f 92//6 58//6 89//6
f 7//6 149//6 93//6
f 157//6 134//6 47//6
f 57//6 137//6 143//6
f 54//6 136//6 43//6
f 152//6 135//6 138//6
f 62//6 163//6 164//6
f 168//6 64//6 63//6
f 167//6 164//6 168//6
f 165//6 62//6 167//6
f 65//6 168//6 169//6
f 67//6 173//6 172//6
f 66//6 169//6 67//6
f 170//6 65//6 66//6
f 61//6 67//6 60//6
f 102//6 176//6 75//6
f 99//6 180//6 102//6
f 5//6 174//6 71//6
f 76//6 178//6 5//6
f 75//6 177//6 76//6
f 72//6 179//6 99//6
f 68//3 59//3 97//3
f 181//7 184//7 183//7
f 182//8 94//8 184//8
f 183//2 94//2 86//2
f 86//9 181//9 183//9
f 181//4 15//4 182//4
f 53//6 153//6 141//6
f 80//10 188//10 79//10
f 153//11 186//11 10//11
f 141//12 196//12 194//12
f 113//12 189//12 80//12
f 53//12 185//12 196//12
f 10//13 185//13 9//13
f 125//11 187//11 191//11
f 125//11 193//11 140//11
f 112//11 188//11 187//11
f 126//12 190//12 113//12
f 140//11 195//11 153//11
f 126//12 194//12 192//12
f 158//1 7//1 96//1
f 15//2 72//2 99//2
f 95//2 75//2 76//2
f 52//1 3//1 9//1
f 8//3 85//3 26//3
f 11//2 76//2 5//2
f 87//2 5//2 71//2
f 1//4 81//4 92//4
f 74//3 79//3 112//3
f 2//2 80//2 79//2
f 3//4 73//4 10//4
f 4//2 13//2 85//2
f 77//4 84//4 12//4
f 154//1 6//1 12//1
f 1//1 89//1 58//1
f 83//3 91//3 29//3
f 69//2 90//2 91//2
f 70//3 16//3 31//3
f 78//2 17//2 22//2
f 19//4 68//4 97//4
f 20//2 100//2 16//2
f 33//4 118//4 64//4
f 18//2 99//2 102//2
f 101//2 102//2 75//2
f 7//4 23//4 105//4
f 161//2 67//2 172//2
f 49//4 50//4 65//4
f 100//1 162//1 62//1
f 28//3 29//3 39//3
f 115//1 116//1 90//1
f 4//1 25//1 27//1
f 24//3 112//3 125//3
f 114//3 26//3 127//3
f 111//1 113//1 80//1
f 78//1 117//1 118//1
f 35//3 127//3 45//3
f 34//3 125//3 140//3
f 38//3 39//3 145//3
f 130//3 41//3 49//3
f 51//3 169//3 168//3
f 37//1 129//1 116//1
f 36//1 128//1 27//1
f 111//1 124//1 126//1
f 59//2 170//2 66//2
f 50//1 132//1 167//1
f 143//3 145//3 156//3
f 138//3 140//3 153//3
f 43//3 45//3 155//3
f 142//1 144//1 129//1
f 44//1 46//1 128//1
f 139//1 141//1 126//1
f 40//1 48//1 146//1
f 54//3 155//3 84//3
f 152//3 153//3 10//3
f 57//3 156//3 92//3
f 51//4 146//4 173//4
f 56//1 58//1 144//1
f 154//1 55//1 46//1
f 52//1 53//1 141//1
f 41//2 165//2 167//2
f 33//3 164//3 163//3
f 31//4 32//4 62//4
f 42//2 168//2 63//2
f 21//1 160//1 66//1
f 105//3 60//3 67//3
f 3//6 82//6 93//6
f 73//6 93//6 149//6
f 74//6 95//6 11//6
f 2//6 11//6 109//6
f 6//6 88//6 82//6
f 77//6 82//6 150//6
f 8//6 11//6 87//6
f 4//6 87//6 110//6
f 26//6 85//6 13//6
f 69//6 14//6 106//6
f 83//6 87//6 14//6
f 1//6 86//6 88//6
f 81//6 88//6 151//6
f 29//6 91//6 90//6
f 7//6 93//6 104//6
f 68//6 94//6 148//6
f 70//6 15//6 18//6
f 78//6 95//6 108//6
f 20//6 18//6 101//6
f 68//6 19//6 98//6
f 78//6 103//6 101//6
f 19//6 23//6 104//6
f 117//6 108//6 121//6
f 70//6 30//6 107//6
f 39//6 29//6 116//6
f 83//6 28//6 110//6
f 115//6 106//6 119//6
f 127//6 26//6 27//6
f 25//6 110//6 123//6
f 8//6 114//6 109//6
f 111//6 109//6 122//6
f 74//6 24//6 108//6
f 139//6 124//6 122//6
f 44//6 36//6 123//6
f 45//6 127//6 128//6
f 142//6 37//6 119//6
f 145//6 39//6 129//6
f 48//6 40//6 121//6
f 30//6 130//6 120//6
f 28//6 38//6 123//6
f 114//6 35//6 122//6
f 24//6 34//6 121//6
f 158//6 48//6 135//6
f 156//6 145//6 144//6
f 56//6 142//6 133//6
f 155//6 45//6 46//6
f 154//6 44//6 137//6
f 52//6 139//6 136//6
f 47//6 134//6 120//6
f 143//6 137//6 123//6
f 43//6 136//6 122//6
f 138//6 135//6 121//6
f 3//6 52//6 150//6
f 6//6 154//6 151//6
f 84//6 155//6 55//6
f 1//6 56//6 147//6
f 92//6 156//6 58//6
f 7//6 158//6 149//6
f 157//6 148//6 134//6
f 57//6 151//6 137//6
f 54//6 150//6 136//6
f 152//6 149//6 135//6
f 62//6 162//6 163//6
f 168//6 164//6 64//6
f 167//6 62//6 164//6
f 165//6 166//6 62//6
f 65//6 167//6 168//6
f 67//6 169//6 173//6
f 66//6 65//6 169//6
f 170//6 171//6 65//6
f 61//6 66//6 67//6
f 102//6 180//6 176//6
f 99//6 179//6 180//6
f 5//6 178//6 174//6
f 76//6 177//6 178//6
f 75//6 176//6 177//6
f 72//6 175//6 179//6
f 68//3 170//3 59//3
f 181//7 182//7 184//7
f 182//8 15//8 94//8
f 183//2 184//2 94//2
f 86//9 14//9 181//9
f 181//4 14//4 15//4
f 125//6 112//6 113//6
f 79//6 80//6 112//6
f 113//6 126//6 125//6
f 53//6 9//6 10//6
f 126//6 141//6 140//6
f 112//6 80//6 113//6
f 10//6 153//6 53//6
f 140//6 125//6 126//6
f 141//6 153//6 140//6
f 80//10 189//10 188//10
f 153//11 195//11 186//11
f 141//12 53//12 196//12
f 113//12 190//12 189//12
f 53//12 9//12 185//12
f 10//13 186//13 185//13
f 125//11 112//11 187//11
f 125//11 191//11 193//11
f 112//11 79//11 188//11
f 126//12 192//12 190//12
f 140//11 193//11 195//11
f 126//12 141//12 194//12
usemtl Glass
f 31//6 100//6 32//6
f 33//6 17//6 118//6
f 49//6 132//6 50//6
f 51//6 131//6 146//6
f 97//6 160//6 21//6
f 105//6 159//6 96//6
f 31//6 16//6 100//6
f 33//6 22//6 17//6
f 49//6 41//6 132//6
f 51//6 42//6 131//6
f 97//6 59//6 160//6
f 105//6 161//6 159//6
