# Blender v2.78 (sub 0) OBJ File: 'tardis_exterior.blend'
# www.blender.org
mtllib tardis_door_right.mtl
o Exterior.002_Cube.004
v 0.109059 0.360455 0.023530
v 0.688071 1.842912 0.028466
v 0.128529 1.842912 0.028466
v 0.690271 1.062934 0.025735
v 0.806427 0.946634 -0.010316
v 0.122491 1.062934 0.025735
v 0.104079 2.631853 0.030942
v 0.691667 1.605969 0.027722
v 0.128529 1.842789 0.067580
v 0.129795 2.416858 0.069382
v 0.808337 1.722381 0.028087
v 0.122491 1.062808 0.065877
v 0.690271 1.062809 0.065877
v 0.804904 0.255925 0.023201
v 0.811761 3.274597 0.032960
v 0.717211 3.180155 0.064844
v 0.716001 2.631752 0.063123
v 0.810995 2.927445 0.031871
v 0.104719 2.921969 0.031853
v 0.716641 2.921969 0.031853
v 0.104719 2.921868 0.064033
v 0.716590 2.898574 0.063960
v 0.104667 2.898675 0.031780
v 0.479509 2.416981 0.030268
v 0.477353 1.062934 0.025735
v 0.478750 1.605843 0.067864
v 0.477353 1.062809 0.065877
v 0.479837 0.841992 0.025041
v 0.479837 0.841922 0.047590
v 0.487740 3.180256 0.032664
v 0.487740 3.180155 0.064844
v 0.487170 2.921868 0.064034
v 0.487119 2.898574 0.063960
v 0.454529 2.416981 0.030268
v 0.453402 1.605969 0.027722
v 0.452006 1.062934 0.025735
v 0.452366 0.360455 0.023530
v 0.453428 0.841992 0.025041
v 0.453428 0.841922 0.047590
v 0.459212 2.631853 0.030942
v 0.460422 3.180155 0.064844
v 0.459801 2.898574 0.063960
v 0.293637 1.605969 0.027722
v 0.292241 1.062934 0.025735
v 0.293637 1.605843 0.067864
v 0.292241 1.062809 0.065877
v 0.288236 3.180256 0.032664
v 0.287026 2.631853 0.030942
v 0.288236 3.180155 0.064844
v 0.287666 2.921868 0.064033
v 0.287615 2.898574 0.063960
v 0.266295 1.842912 0.028466
v 0.266295 1.842789 0.067580
v 0.263681 1.605969 0.027722
v 0.262285 1.062809 0.065877
v 0.254704 0.360455 0.023530
v 0.255767 0.841992 0.025041
v 0.254704 0.360384 0.046078
v 0.255951 3.180155 0.064844
v 0.104667 2.898690 0.026940
v 0.104719 2.921985 0.027013
v 0.487170 2.921985 0.027014
v 0.459212 2.631868 0.026103
v 0.486530 2.631868 0.026103
v 0.287666 2.921985 0.027014
v 0.255381 2.921985 0.027014
v 0.255330 2.898690 0.026940
v 0.105288 3.180256 0.032664
v 0.700604 0.360455 0.023530
v 0.717211 3.180256 0.032664
v 0.804904 0.256037 -0.012484
v 0.811761 3.274709 -0.002725
v 0.129795 2.416981 0.030268
v 0.689337 2.416981 0.030268
v 0.810135 2.537624 -0.005039
v 0.808337 1.722493 -0.007598
v 0.123887 1.605969 0.027722
v 0.716001 2.631853 0.030943
v 0.689337 2.416858 0.069382
v 0.688071 1.842789 0.067580
v 0.110121 0.841992 0.025041
v 0.007731 1.722381 0.028087
v 0.701666 0.841992 0.025041
v 0.123887 1.605843 0.067864
v 0.691667 1.605843 0.067864
v 0.004297 0.255925 0.023201
v 0.806427 0.946522 0.025369
v 0.005821 0.946522 0.025369
v 0.109059 0.360384 0.046078
v 0.700604 0.360384 0.046078
v 0.701666 0.841922 0.047590
v 0.110121 0.841921 0.047590
v 0.009529 2.537512 0.030646
v 0.011155 3.274597 0.032960
v 0.810135 2.537512 0.030646
v 0.104079 2.631752 0.063123
v 0.105288 3.180155 0.064844
v 0.010389 2.927445 0.031870
v 0.810995 2.927557 -0.003814
v 0.716641 2.921868 0.064034
v 0.810926 2.896137 0.031772
v 0.810926 2.896249 -0.003913
v 0.716590 2.898675 0.031780
v 0.010320 2.896137 0.031772
v 0.104667 2.898574 0.063960
v 0.504676 0.255925 0.023201
v 0.511534 3.274597 0.032960
v 0.509908 2.537512 0.030646
v 0.508110 1.722381 0.028087
v 0.506200 0.946522 0.025369
v 0.478243 1.842912 0.028466
v 0.479509 2.416858 0.069382
v 0.478243 1.842789 0.067580
v 0.478750 1.605969 0.027722
v 0.478774 0.360455 0.023530
v 0.478774 0.360384 0.046078
v 0.486530 2.631853 0.030942
v 0.486530 2.631752 0.063123
v 0.468935 0.255925 0.023201
v 0.475792 3.274597 0.032960
v 0.474167 2.537512 0.030646
v 0.472368 1.722381 0.028087
v 0.470459 0.946522 0.025369
v 0.453263 1.842912 0.028466
v 0.454529 2.416858 0.069382
v 0.453263 1.842789 0.067580
v 0.453402 1.605843 0.067864
v 0.452006 1.062809 0.065877
v 0.452366 0.360384 0.046078
v 0.460422 3.180256 0.032664
v 0.459212 2.631752 0.063123
v 0.459852 2.921868 0.064034
v 0.243656 0.255925 0.023201
v 0.250513 3.274597 0.032960
v 0.248887 2.537512 0.030646
v 0.247089 1.722381 0.028087
v 0.245180 0.946522 0.025369
v 0.297082 2.416981 0.030268
v 0.295816 1.842912 0.028466
v 0.297082 2.416858 0.069382
v 0.295816 1.842789 0.067580
v 0.285914 0.360455 0.023530
v 0.286976 0.841992 0.025041
v 0.285914 0.360384 0.046078
v 0.286976 0.841922 0.047590
v 0.287026 2.631752 0.063123
v 0.201416 0.255925 0.023201
v 0.208274 3.274597 0.032960
v 0.206648 2.537512 0.030646
v 0.204850 1.722381 0.028087
v 0.202940 0.946522 0.025369
v 0.267561 2.416981 0.030268
v 0.267561 2.416858 0.069382
v 0.262285 1.062934 0.025735
v 0.263681 1.605843 0.067864
v 0.255767 0.841922 0.047590
v 0.255951 3.180256 0.032664
v 0.254741 2.631853 0.030942
v 0.254741 2.631752 0.063123
v 0.255381 2.921868 0.064033
v 0.255330 2.898574 0.063960
v 0.716641 2.921985 0.027014
v 0.716590 2.898691 0.026941
v 0.487119 2.898690 0.026941
v 0.460422 3.180271 0.027825
v 0.487740 3.180271 0.027825
v 0.459852 2.921985 0.027014
v 0.459801 2.898690 0.026941
v 0.287615 2.898690 0.026940
v 0.255951 3.180271 0.027824
v 0.288236 3.180271 0.027824
v 0.254741 2.631868 0.026103
v 0.287026 2.631868 0.026103
v 0.826863 0.256037 -0.012484
v 0.833720 3.274709 -0.002725
v 0.832094 2.537624 -0.005039
v 0.830296 1.722493 -0.007598
v 0.828386 0.946634 -0.010316
v 0.832954 2.927557 -0.003814
v 0.832885 2.896249 -0.003913
v 0.804904 0.255925 0.073201
v 0.811761 3.274597 0.082960
v 0.004297 0.255925 0.073201
v 0.011155 3.274597 0.082960
v 0.175211 1.894911 0.063939
v 0.176248 2.364760 0.065414
v 0.462472 2.364760 0.065414
v 0.634207 2.364760 0.065414
v 0.633171 1.894911 0.063939
v 0.461436 1.894911 0.063939
v 0.442028 2.364760 0.065414
v 0.440992 1.894911 0.063939
v 0.313165 2.364760 0.065414
v 0.312128 1.894911 0.063939
v 0.289003 2.364760 0.065414
v 0.287967 1.894911 0.063939
v 0.303621 2.025021 0.064299
v 0.304077 2.234650 0.065054
v 0.505798 2.234650 0.065054
v 0.505342 2.025021 0.064299
vt 0.0000 0.0000
vt 0.0000 0.0000
vt 0.0000 0.0000
vt 0.0000 0.0000
vt 0.0000 0.0000
vt 0.0000 0.0000
vt 0.0000 0.0000
vt 0.0000 0.0000
vt 0.0000 0.0000
vt 0.0000 0.0000
vt 0.0000 0.0000
vt 0.0000 0.0000
vt 0.0000 0.0000
vt 0.0000 0.0000
vt 0.0000 0.0000
vt 0.0000 0.0000
vt 0.0000 0.0000
vt 0.0000 0.0000
vt 0.0000 0.0000
vt 0.0000 0.0000
vt 0.0000 0.0000
vt 0.0000 0.0000
vt 0.0000 0.0000
vt 0.0000 0.0000
vt 0.0000 0.0000
vt 0.0000 0.0000
vt 0.0000 0.0000
vt 0.0000 0.0000
vt 0.0000 0.0000
vt 0.0000 0.0000
vt 0.0000 0.0000
vt 0.0000 0.0000
vt 0.0000 0.0000
vt 0.0000 0.0000
vt 0.0000 0.0000
vt 0.0000 0.0000
vt 0.0000 0.0000
vt 0.0000 0.0000
vt 0.0000 0.0000
vt 0.0000 0.0000
vt 0.0000 0.0000
vt 0.0000 0.0000
vt 0.0000 0.0000
vt 0.0000 0.0000
vt 0.0000 0.0000
vt 0.0000 0.0000
vt 0.0000 0.0000
vt 0.0000 0.0000
vt 0.0000 0.0000
vt 0.0000 0.0000
vt 0.0000 0.0000
vt 0.0000 0.0000
vt 0.0000 0.0000
vt 0.0000 0.0000
vt 0.0000 0.0000
vt 0.0000 0.0000
vt 0.0000 0.0000
vt 0.0000 0.0000
vt 0.0000 0.0000
vt 0.0000 0.0000
vt 0.0000 0.0000
vt 0.0000 0.0000
vt 0.0000 0.0000
vt 0.0000 0.0000
vt 0.0000 0.0000
vt 0.0000 0.0000
vt 0.0000 0.0000
vt 0.0000 0.0000
vt 0.0000 0.0000
vt 0.0000 0.0000
vt 0.0000 0.0000
vt 0.0000 0.0000
vt 0.0000 0.0000
vt 0.0000 0.0000
vt 0.0000 0.0000
vt 0.0000 0.0000
vt 0.0000 0.0000
vt 0.0000 0.0000
vt 0.0000 0.0000
vt 0.0000 0.0000
vt 0.0000 0.0000
vt 0.0000 0.0000
vt 0.0000 0.0000
vt 0.0000 0.0000
vt 0.0000 0.0000
vt 0.0000 0.0000
vt 0.0000 0.0000
vt 0.0000 0.0000
vt 0.0000 0.0000
vt 0.0000 0.0000
vt 0.0000 0.0000
vt 0.0000 0.0000
vt 0.0000 0.0000
vt 0.0000 0.0000
vt 0.0000 0.0000
vt 0.0000 0.0000
vt 0.0000 0.0000
vt 0.0000 0.0000
vt 0.0000 0.0000
vt 0.0000 0.0000
vt 0.0000 0.0000
vt 0.0000 0.0000
vt 0.0000 0.0000
vt 0.0000 0.0000
vt 0.0000 0.0000
vt 0.0000 0.0000
vt 0.0000 0.0000
vt 0.0000 0.0000
vt 0.0000 0.0000
vt 0.0000 0.0000
vt 0.0000 0.0000
vt 0.0000 0.0000
vt 0.0000 0.0000
vt 0.0000 0.0000
vt 0.0000 0.0000
vt 0.0000 0.0000
vt 0.0000 0.0000
vt 0.0000 0.0000
vt 0.0000 0.0000
vt 0.0000 0.0000
vt 0.0000 0.0000
vt 0.0000 0.0000
vt 0.0000 0.0000
vt 0.0000 0.0000
vt 0.0000 0.0000
vt 0.0000 0.0000
vt 0.0000 0.0000
vt 0.0000 0.0000
vt 0.0000 0.0000
vt 0.0000 0.0000
vt 0.0000 0.0000
vt 0.0000 0.0000
vt 0.0000 0.0000
vt 0.0000 0.0000
vt 0.0000 0.0000
vt 0.0000 0.0000
vt 0.0000 0.0000
vt 0.0000 0.0000
vt 0.0000 0.0000
vt 0.0000 0.0000
vt 0.0000 0.0000
vt 0.0000 0.0000
vt 0.0000 0.0000
vt 0.0000 0.0000
vt 0.0000 0.0000
vt 0.0000 0.0000
vt 0.0000 0.0000
vt 0.0000 0.0000
vt 0.0000 0.0000
vt 0.0000 0.0000
vt 0.0000 0.0000
vt 0.0000 0.0000
vt 0.0000 0.0000
vt 0.0000 0.0000
vt 0.0000 0.0000
vt 0.0000 0.0000
vt 0.0000 0.0000
vt 0.0000 0.0000
vt 0.0000 0.0000
vt 0.0000 0.0000
vt 0.0000 0.0000
vt 0.0000 0.0000
vt 0.0000 0.0000
vt 0.0000 0.0000
vt 0.0000 0.0000
vt 0.0000 0.0000
vt 0.0000 0.0000
vt 0.0000 0.0000
vt 0.0000 0.0000
vt 0.0000 0.0000
vt 0.0000 0.0000
vt 0.0000 0.0000
vt 0.0000 0.0000
vt 0.0000 0.0000
vt 0.0000 0.0000
vt 0.0000 0.0000
vt 0.0000 0.0000
vt 0.0000 0.0000
vt 0.0000 0.0000
vt 0.0000 0.0000
vt 0.0000 0.0000
vt 0.0000 0.0000
vt 0.0000 0.0000
vt 0.0000 0.0000
vt 0.0000 0.0000
vt 0.0000 0.0000
vt 0.0000 0.0000
vt 0.0000 0.0000
vt 0.0000 0.0000
vt 0.0000 0.0000
vt 0.0000 0.0000
vt 0.0000 0.0000
vt 0.0000 0.0000
vt 0.0000 0.0000
vt 0.0000 0.0000
vt 0.0000 0.0000
vt 0.0000 0.0000
vt 0.0000 0.0000
vt 0.0000 0.0000
vt 0.0000 0.0000
vt 0.9725 0.9978
vt 0.0001 0.0022
vt 0.9725 0.0001
vt 0.0001 0.9999
vn -0.0000 1.0000 0.0031
vn -1.0000 0.0022 0.0000
vn 0.0000 -1.0000 -0.0031
vn -1.0000 0.0025 0.0000
vn 1.0000 -0.0022 -0.0000
vn -1.0000 0.0026 0.0000
vn 1.0000 -0.0026 -0.0000
vn 0.0000 -1.0000 -0.0032
vn -0.0000 1.0000 0.0032
vn 0.0000 0.0031 -1.0000
vn 0.0005 0.0037 -1.0000
vn 0.0000 0.0037 -1.0000
vn 0.0000 0.0035 -1.0000
vn 0.0000 -0.0032 1.0000
vn 0.0000 1.0000 0.0000
vn -1.0000 0.0023 0.0000
vn 0.0000 -1.0000 0.0000
vn 1.0000 -0.0023 0.0000
vn -0.0004 0.0031 -1.0000
vn 0.0690 0.0030 -0.9976
vn 0.0000 0.0759 -0.9971
vn 0.0000 -0.0697 -0.9976
vn -0.0814 0.0033 -0.9967
vn 0.0000 0.0028 -1.0000
vn -0.0004 0.0035 -1.0000
vn 0.0008 0.0036 -1.0000
vn 0.0000 0.0036 -1.0000
usemtl Wood
s off
f 158/1/1 96/2/1 159/3/1
f 15/4/2 99/5/2 18/6/2
f 11/7/2 75/8/2 76/9/2
f 52/10/1 9/11/1 53/12/1
f 8/13/3 26/14/3 114/15/3
f 87/16/4 76/9/4 5/17/4
f 87/16/2 71/18/2 14/19/2
f 1/20/5 92/21/5 89/22/5
f 74/23/3 112/24/3 24/25/3
f 2/26/2 79/27/2 74/23/2
f 73/28/5 9/11/5 3/29/5
f 8/13/6 13/30/6 85/31/6
f 77/32/7 12/33/7 6/34/7
f 6/34/1 55/35/1 154/36/1
f 56/37/1 89/22/1 58/38/1
f 83/39/3 29/40/3 28/41/3
f 69/42/2 91/43/2 83/39/2
f 70/44/3 31/45/3 30/46/3
f 78/47/2 22/48/2 103/49/2
f 19/50/5 97/51/5 21/52/5
f 20/53/2 16/54/2 70/44/2
f 33/55/5 64/56/5 164/57/5
f 18/6/2 102/58/2 101/59/2
f 101/59/2 75/8/2 95/60/2
f 7/61/5 105/62/5 96/2/5
f 161/63/2 172/64/2 159/3/2
f 49/65/5 65/66/5 171/67/5
f 100/68/1 62/69/1 32/70/1
f 28/41/3 39/71/3 38/72/3
f 115/73/1 90/74/1 69/42/1
f 4/75/1 27/76/1 13/30/1
f 24/25/3 125/77/3 34/78/3
f 114/15/3 127/79/3 35/80/3
f 2/26/1 113/81/1 80/82/1
f 78/47/1 118/83/1 17/84/1
f 35/80/3 45/85/3 43/86/3
f 34/78/3 140/87/3 138/88/3
f 38/72/3 145/89/3 143/90/3
f 130/91/3 49/65/3 47/92/3
f 51/93/8 168/94/8 42/95/8
f 37/96/1 116/97/1 115/73/1
f 36/98/1 27/76/1 25/99/1
f 111/100/1 126/101/1 113/81/1
f 59/102/2 66/103/2 160/104/2
f 50/105/1 167/106/1 65/66/1
f 57/107/3 145/89/3 156/108/3
f 138/88/3 153/109/3 152/110/3
f 43/86/3 155/111/3 54/112/3
f 142/113/1 129/114/1 37/96/1
f 44/115/1 128/116/1 36/98/1
f 139/117/1 126/101/1 124/118/1
f 40/119/9 146/120/9 131/121/9
f 54/112/3 84/122/3 77/32/3
f 152/110/3 10/123/3 73/28/3
f 57/107/3 92/21/3 81/124/3
f 51/93/5 173/125/5 169/126/5
f 56/37/1 144/127/1 142/113/1
f 154/36/1 46/128/1 44/115/1
f 52/10/1 141/129/1 139/117/1
f 41/130/2 167/106/2 132/131/2
f 33/55/3 163/132/3 22/48/3
f 31/45/5 62/69/5 166/133/5
f 42/95/2 63/134/2 131/121/2
f 21/52/1 66/103/1 61/135/1
f 105/62/3 67/136/3 161/63/3
f 3/29/10 93/137/10 73/28/10
f 73/28/10 149/138/10 152/110/10
f 74/23/10 11/7/10 2/26/10
f 2/26/10 109/139/10 111/100/10
f 6/34/11 82/140/11 77/32/11
f 77/32/10 150/141/10 54/112/10
f 8/13/11 87/16/11 4/75/11
f 4/75/10 110/142/10 25/99/10
f 26/14/12 13/30/12 27/76/12
f 69/42/10 106/143/10 115/73/10
f 83/39/10 14/19/10 69/42/10
f 1/20/10 88/144/10 81/124/10
f 81/124/10 151/145/10 57/107/10
f 29/40/10 90/74/10 116/97/10
f 7/61/10 104/146/10 23/147/10
f 68/148/10 148/149/10 157/150/10
f 70/44/10 18/6/10 20/53/10
f 78/47/10 108/151/10 117/152/10
f 20/53/10 101/59/10 103/49/10
f 68/148/10 98/153/10 94/154/10
f 78/47/10 101/59/10 95/60/10
f 19/50/10 104/146/10 98/153/10
f 117/152/10 121/155/10 40/119/10
f 70/44/10 107/156/10 15/4/10
f 39/71/10 116/97/10 129/114/10
f 83/39/10 110/142/10 87/16/10
f 115/73/10 119/157/10 37/96/10
f 127/79/12 27/76/12 128/116/12
f 25/99/10 123/158/10 36/98/10
f 8/13/10 109/139/10 11/7/10
f 111/100/10 122/159/10 124/118/10
f 74/23/10 108/151/10 95/60/10
f 139/117/10 122/159/10 136/160/10
f 44/115/10 123/158/10 137/161/10
f 45/85/12 128/116/12 46/128/12
f 142/113/10 119/157/10 133/162/10
f 145/89/10 129/114/10 144/127/10
f 48/163/10 121/155/10 135/164/10
f 30/46/10 120/165/10 107/156/10
f 28/41/10 123/158/10 110/142/10
f 114/15/10 122/159/10 109/139/10
f 24/25/10 121/155/10 108/151/10
f 158/1/10 135/164/10 149/138/10
f 156/108/10 144/127/10 58/38/10
f 56/37/10 133/162/10 147/166/10
f 155/111/12 46/128/12 55/35/12
f 154/36/10 137/161/10 151/145/10
f 52/10/10 136/160/10 150/141/10
f 47/92/10 120/165/10 130/91/10
f 143/90/10 123/158/10 38/72/10
f 43/86/10 122/159/10 35/80/10
f 138/88/10 121/155/10 34/78/10
f 3/29/10 150/141/10 82/140/10
f 6/34/10 151/145/10 88/144/10
f 84/122/12 55/35/12 12/33/12
f 1/20/10 147/166/10 86/167/10
f 92/21/10 58/38/10 89/22/10
f 7/61/10 149/138/10 93/137/10
f 157/150/10 134/168/10 47/92/10
f 57/107/10 137/161/10 143/90/10
f 54/112/10 136/160/10 43/86/10
f 152/110/10 135/164/10 138/88/10
f 62/69/10 163/132/10 164/57/10
f 168/94/10 64/56/10 63/134/10
f 167/106/10 164/57/10 168/94/10
f 165/169/10 62/69/10 167/106/10
f 65/66/10 168/94/10 169/126/10
f 67/136/10 173/125/10 172/64/10
f 66/103/10 169/126/10 67/136/10
f 170/170/10 65/66/10 66/103/10
f 61/135/10 67/136/10 60/171/10
f 102/58/10 176/172/10 75/8/10
f 99/5/10 180/173/10 102/58/10
f 5/17/10 174/174/10 71/18/10
f 76/9/13 178/175/13 5/17/13
f 75/8/10 177/176/10 76/9/10
f 72/177/10 179/178/10 99/5/10
f 68/148/3 59/102/3 97/51/3
f 181/179/14 184/180/14 183/181/14
f 182/182/15 94/154/15 184/180/15
f 183/181/16 94/154/16 86/167/16
f 86/167/17 181/179/17 183/181/17
f 181/179/18 15/4/18 182/182/18
f 189/183/19 199/184/19 188/185/19
f 80/82/20 188/185/20 79/27/20
f 153/109/21 186/186/21 10/123/21
f 141/129/22 196/187/22 194/188/22
f 113/81/22 189/183/22 80/82/22
f 53/12/22 185/189/22 196/187/22
f 10/123/23 185/189/23 9/11/23
f 125/77/21 187/190/21 191/191/21
f 125/77/21 193/192/21 140/87/21
f 112/24/21 188/185/21 187/190/21
f 126/101/22 190/193/22 113/81/22
f 140/87/21 195/194/21 153/109/21
f 126/101/22 194/188/22 192/195/22
f 186/186/19 197/196/19 185/189/19
f 189/183/24 197/196/24 200/197/24
f 186/186/24 199/184/24 198/198/24
f 158/1/1 7/61/1 96/2/1
f 15/4/2 72/177/2 99/5/2
f 11/7/2 95/60/2 75/8/2
f 52/10/1 3/29/1 9/11/1
f 8/13/3 85/31/3 26/14/3
f 87/16/4 11/7/4 76/9/4
f 87/16/2 5/17/2 71/18/2
f 1/20/5 81/124/5 92/21/5
f 74/23/8 79/27/8 112/24/8
f 2/26/2 80/82/2 79/27/2
f 73/28/5 10/123/5 9/11/5
f 8/13/6 4/75/6 13/30/6
f 77/32/7 84/122/7 12/33/7
f 6/34/1 12/33/1 55/35/1
f 56/37/1 1/20/1 89/22/1
f 83/39/3 91/43/3 29/40/3
f 69/42/2 90/74/2 91/43/2
f 70/44/3 16/54/3 31/45/3
f 78/47/2 17/84/2 22/48/2
f 19/50/5 68/148/5 97/51/5
f 20/53/2 100/68/2 16/54/2
f 33/55/5 118/83/5 64/56/5
f 18/6/2 99/5/2 102/58/2
f 101/59/2 102/58/2 75/8/2
f 7/61/5 23/147/5 105/62/5
f 161/63/2 67/136/2 172/64/2
f 49/65/5 50/105/5 65/66/5
f 100/68/1 162/199/1 62/69/1
f 28/41/3 29/40/3 39/71/3
f 115/73/1 116/97/1 90/74/1
f 4/75/1 25/99/1 27/76/1
f 24/25/3 112/24/3 125/77/3
f 114/15/3 26/14/3 127/79/3
f 2/26/1 111/100/1 113/81/1
f 78/47/1 117/152/1 118/83/1
f 35/80/3 127/79/3 45/85/3
f 34/78/3 125/77/3 140/87/3
f 38/72/3 39/71/3 145/89/3
f 130/91/3 41/130/3 49/65/3
f 51/93/3 169/126/3 168/94/3
f 37/96/1 129/114/1 116/97/1
f 36/98/1 128/116/1 27/76/1
f 111/100/1 124/118/1 126/101/1
f 59/102/2 170/170/2 66/103/2
f 50/105/1 132/131/1 167/106/1
f 57/107/3 143/90/3 145/89/3
f 138/88/3 140/87/3 153/109/3
f 43/86/3 45/85/3 155/111/3
f 142/113/1 144/127/1 129/114/1
f 44/115/1 46/128/1 128/116/1
f 139/117/1 141/129/1 126/101/1
f 40/119/1 48/163/1 146/120/1
f 54/112/3 155/111/3 84/122/3
f 152/110/3 153/109/3 10/123/3
f 57/107/3 156/108/3 92/21/3
f 51/93/5 146/120/5 173/125/5
f 56/37/1 58/38/1 144/127/1
f 154/36/1 55/35/1 46/128/1
f 52/10/1 53/12/1 141/129/1
f 41/130/2 165/169/2 167/106/2
f 33/55/3 164/57/3 163/132/3
f 31/45/5 32/70/5 62/69/5
f 42/95/2 168/94/2 63/134/2
f 21/52/1 160/104/1 66/103/1
f 105/62/3 60/171/3 67/136/3
f 3/29/10 82/140/10 93/137/10
f 73/28/10 93/137/10 149/138/10
f 74/23/10 95/60/10 11/7/10
f 2/26/10 11/7/10 109/139/10
f 6/34/25 88/144/25 82/140/25
f 77/32/10 82/140/10 150/141/10
f 8/13/25 11/7/25 87/16/25
f 4/75/10 87/16/10 110/142/10
f 26/14/12 85/31/12 13/30/12
f 69/42/10 14/19/10 106/143/10
f 83/39/10 87/16/10 14/19/10
f 1/20/10 86/167/10 88/144/10
f 81/124/10 88/144/10 151/145/10
f 29/40/10 91/43/10 90/74/10
f 7/61/10 93/137/10 104/146/10
f 68/148/10 94/154/10 148/149/10
f 70/44/10 15/4/10 18/6/10
f 78/47/10 95/60/10 108/151/10
f 20/53/10 18/6/10 101/59/10
f 68/148/10 19/50/10 98/153/10
f 78/47/10 103/49/10 101/59/10
f 19/50/10 23/147/10 104/146/10
f 117/152/10 108/151/10 121/155/10
f 70/44/10 30/46/10 107/156/10
f 39/71/10 29/40/10 116/97/10
f 83/39/10 28/41/10 110/142/10
f 115/73/10 106/143/10 119/157/10
f 127/79/12 26/14/12 27/76/12
f 25/99/10 110/142/10 123/158/10
f 8/13/10 114/15/10 109/139/10
f 111/100/10 109/139/10 122/159/10
f 74/23/10 24/25/10 108/151/10
f 139/117/10 124/118/10 122/159/10
f 44/115/10 36/98/10 123/158/10
f 45/85/12 127/79/12 128/116/12
f 142/113/10 37/96/10 119/157/10
f 145/89/10 39/71/10 129/114/10
f 48/163/10 40/119/10 121/155/10
f 30/46/10 130/91/10 120/165/10
f 28/41/10 38/72/10 123/158/10
f 114/15/10 35/80/10 122/159/10
f 24/25/10 34/78/10 121/155/10
f 158/1/10 48/163/10 135/164/10
f 156/108/10 145/89/10 144/127/10
f 56/37/10 142/113/10 133/162/10
f 155/111/12 45/85/12 46/128/12
f 154/36/10 44/115/10 137/161/10
f 52/10/10 139/117/10 136/160/10
f 47/92/10 134/168/10 120/165/10
f 143/90/10 137/161/10 123/158/10
f 43/86/10 136/160/10 122/159/10
f 138/88/10 135/164/10 121/155/10
f 3/29/10 52/10/10 150/141/10
f 6/34/10 154/36/10 151/145/10
f 84/122/12 155/111/12 55/35/12
f 1/20/10 56/37/10 147/166/10
f 92/21/10 156/108/10 58/38/10
f 7/61/10 158/1/10 149/138/10
f 157/150/10 148/149/10 134/168/10
f 57/107/10 151/145/10 137/161/10
f 54/112/10 150/141/10 136/160/10
f 152/110/10 149/138/10 135/164/10
f 62/69/10 162/199/10 163/132/10
f 168/94/10 164/57/10 64/56/10
f 167/106/10 62/69/10 164/57/10
f 165/169/10 166/133/10 62/69/10
f 65/66/10 167/106/10 168/94/10
f 67/136/10 169/126/10 173/125/10
f 66/103/10 65/66/10 169/126/10
f 170/170/10 171/67/10 65/66/10
f 61/135/10 66/103/10 67/136/10
f 102/58/10 180/173/10 176/172/10
f 99/5/10 179/178/10 180/173/10
f 5/17/10 178/175/10 174/174/10
f 76/9/13 177/176/13 178/175/13
f 75/8/10 176/172/10 177/176/10
f 72/177/10 175/200/10 179/178/10
f 68/148/3 170/170/3 59/102/3
f 181/179/14 182/182/14 184/180/14
f 182/182/15 15/4/15 94/154/15
f 183/181/16 184/180/16 94/154/16
f 86/167/17 14/19/17 181/179/17
f 181/179/18 14/19/18 15/4/18
f 189/183/26 200/197/26 199/184/26
f 80/82/20 189/183/20 188/185/20
f 153/109/21 195/194/21 186/186/21
f 141/129/22 53/12/22 196/187/22
f 113/81/22 190/193/22 189/183/22
f 53/12/22 9/11/22 185/189/22
f 10/123/23 186/186/23 185/189/23
f 125/77/21 112/24/21 187/190/21
f 125/77/21 191/191/21 193/192/21
f 112/24/21 79/27/21 188/185/21
f 126/101/22 192/195/22 190/193/22
f 140/87/21 193/192/21 195/194/21
f 126/101/22 141/129/22 194/188/22
f 186/186/26 198/198/26 197/196/26
f 189/183/24 185/189/24 197/196/24
f 186/186/24 188/185/24 199/184/24
usemtl Glass
f 31/45/10 100/68/10 32/70/10
f 33/55/10 17/84/10 118/83/10
f 49/65/10 132/131/10 50/105/10
f 51/93/10 131/121/10 146/120/10
f 97/51/10 160/104/10 21/52/10
f 105/62/10 159/3/10 96/2/10
f 31/45/10 16/54/10 100/68/10
f 33/55/10 22/48/10 17/84/10
f 49/65/10 41/130/10 132/131/10
f 51/93/10 42/95/10 131/121/10
f 97/51/10 59/102/10 160/104/10
f 105/62/10 161/63/10 159/3/10
usemtl StJohn
f 198/201/27 200/202/27 197/203/27
f 198/201/27 199/204/27 200/202/27
