# Blender v2.78 (sub 0) OBJ File: 'tardis_exterior.blend'
# www.blender.org
mtllib tardis_exterior_stencil.mtl
o Cube.001
v 0.709318 0.253505 -1.006265
v 0.000286 0.253505 -1.006265
v 0.700004 3.247914 -0.999720
v 0.000286 3.247914 -0.999720
v 0.000286 3.270848 1.000399
v 0.765989 0.197142 0.931266
v 0.000286 0.197142 0.931266
v 0.756334 3.270986 0.938049
v 0.000286 3.270986 0.938049
v -0.709318 0.253505 -1.006265
v -0.000287 0.253505 -1.006265
v -0.700004 3.247914 -0.999720
v -0.000287 3.247914 -0.999720
v -0.000287 3.270848 1.000399
v -0.765989 0.197142 0.931266
v -0.000287 0.197142 0.931266
v -0.756334 3.270986 0.938049
v -0.000287 3.270986 0.938049
vn -0.9996 -0.0032 0.0291
vn 0.0000 0.9996 0.0291
vn 0.0000 0.0022 -1.0000
vn -0.0000 -0.9999 0.0119
vn 0.9996 -0.0032 0.0291
vn 1.0000 0.0000 0.0000
vn -1.0000 0.0000 0.0000
usemtl Material
s off
f 8//1 1//1 6//1
f 1//2 7//2 6//2
f 8//3 7//3 9//3
f 8//4 9//4 3//4
f 17//5 10//5 12//5
f 16//2 10//2 15//2
f 17//3 16//3 15//3
f 13//4 18//4 12//4
f 8//1 3//1 1//1
f 1//2 2//2 7//2
f 8//3 6//3 7//3
f 4//4 3//4 9//4
f 9//6 5//6 4//6
f 17//5 15//5 10//5
f 16//2 11//2 10//2
f 17//3 18//3 16//3
f 17//4 12//4 18//4
f 13//7 14//7 18//7
