# Blender v2.78 (sub 0) OBJ File: 'tardis_exterior.blend'
# www.blender.org
mtllib tardis_door_left.mtl
o Exterior.001_Cube.000
v -0.089839 3.019464 0.035927
v -0.789348 0.005032 0.026463
v -0.688515 3.019464 0.035927
v -0.789348 0.005144 -0.009222
v -0.782491 3.113759 0.000537
v -0.105394 2.268481 0.033570
v -0.676273 2.268481 0.033569
v -0.784116 2.376674 -0.001777
v -0.677595 1.669512 0.031689
v -0.785915 1.561543 -0.004336
v -0.106715 1.669512 0.031689
v -0.669173 0.814019 0.029003
v -0.787825 0.695742 -0.007054
v -0.118910 0.814019 0.029003
v -0.117523 1.443042 0.030978
v -0.091050 2.470745 0.034205
v -0.689725 2.470745 0.034204
v -0.667786 1.443042 0.030978
v -0.106715 1.669381 0.073340
v -0.105394 2.268350 0.075220
v -0.676273 2.268350 0.075220
v -0.677595 1.669381 0.073339
v -0.785915 1.561431 0.031349
v -0.787825 0.695629 0.028631
v -0.118910 0.813923 0.059493
v -0.117523 1.442946 0.061467
v -0.667786 1.442946 0.061467
v -0.669173 0.813923 0.059493
v -0.683424 0.110722 0.026795
v -0.107762 0.110722 0.026795
v -0.682367 0.589940 0.028300
v -0.106705 0.589940 0.028300
v -0.683424 0.110666 0.044595
v -0.107762 0.110666 0.044595
v -0.682367 0.589884 0.046099
v -0.106705 0.589884 0.046099
v -0.782491 3.113647 0.036222
v -0.784117 2.376562 0.033908
v -0.091050 2.470637 0.068659
v -0.089839 3.019356 0.070382
v -0.688515 3.019356 0.070381
v -0.689725 2.470637 0.068659
v -0.783256 2.766495 0.035133
v -0.783256 2.766607 -0.000552
v -0.090409 2.761029 0.035116
v -0.689085 2.761029 0.035116
v -0.090409 2.760920 0.069570
v -0.689085 2.760920 0.069570
v -0.783325 2.735187 0.035034
v -0.783325 2.735299 -0.000651
v -0.689136 2.737721 0.035042
v -0.689136 2.737613 0.069497
v -0.090461 2.737721 0.035043
v -0.090461 2.737613 0.069497
v -0.283794 2.268481 0.033569
v -0.285115 1.669512 0.031689
v -0.283794 2.268350 0.075220
v -0.285115 1.669381 0.073339
v -0.289480 1.443042 0.030978
v -0.290867 0.814019 0.029003
v -0.289480 1.442946 0.061467
v -0.290867 0.813923 0.059493
v -0.287656 0.110722 0.026795
v -0.286600 0.589940 0.028300
v -0.287656 0.110666 0.044595
v -0.286600 0.589884 0.046099
v -0.276925 3.019464 0.035927
v -0.278136 2.470745 0.034204
v -0.276925 3.019356 0.070381
v -0.278136 2.470637 0.068659
v -0.277495 2.760920 0.069570
v -0.277547 2.737613 0.069497
v -0.313984 2.268481 0.033569
v -0.315306 1.669512 0.031689
v -0.313984 2.268350 0.075220
v -0.315306 1.669381 0.073339
v -0.318581 1.443042 0.030978
v -0.319968 0.814019 0.029003
v -0.318581 1.442946 0.061467
v -0.319968 0.813923 0.059493
v -0.318100 0.110722 0.026795
v -0.317043 0.589940 0.028300
v -0.318100 0.110666 0.044595
v -0.317043 0.589884 0.046099
v -0.308586 3.019464 0.035927
v -0.309796 2.470745 0.034204
v -0.308586 3.019356 0.070381
v -0.309796 2.470637 0.068659
v -0.309156 2.760920 0.069570
v -0.309207 2.737613 0.069497
v -0.475001 2.268481 0.033569
v -0.476323 1.669512 0.031689
v -0.475002 2.268350 0.075220
v -0.476323 1.669381 0.073339
v -0.473783 1.443042 0.030978
v -0.475170 0.814019 0.029003
v -0.473783 1.442946 0.061467
v -0.475170 0.813923 0.059493
v -0.480466 0.110722 0.026795
v -0.479409 0.589940 0.028300
v -0.480466 0.110666 0.044595
v -0.479409 0.589884 0.046099
v -0.477443 3.019464 0.035927
v -0.478654 2.470745 0.034204
v -0.477443 3.019356 0.070381
v -0.478654 2.470637 0.068659
v -0.478013 2.760920 0.069570
v -0.478065 2.737613 0.069497
v -0.510224 2.268481 0.033569
v -0.511545 1.669512 0.031689
v -0.510224 2.268350 0.075220
v -0.511545 1.669381 0.073339
v -0.507733 1.443042 0.030978
v -0.509121 0.814019 0.029003
v -0.507733 1.442946 0.061467
v -0.509121 0.813923 0.059493
v -0.515984 0.110722 0.026795
v -0.514927 0.589940 0.028300
v -0.515984 0.110666 0.044595
v -0.514927 0.589884 0.046099
v -0.514381 3.019464 0.035927
v -0.515591 2.470745 0.034204
v -0.514381 3.019356 0.070381
v -0.515591 2.470637 0.068659
v -0.514951 2.760920 0.069570
v -0.515002 2.737613 0.069497
v -0.090461 2.737729 0.032477
v -0.090409 2.761037 0.032550
v -0.277495 2.761037 0.032550
v -0.689085 2.761037 0.032550
v -0.689136 2.737729 0.032477
v -0.277547 2.737729 0.032477
v -0.308586 3.019472 0.033362
v -0.276925 3.019472 0.033362
v -0.309796 2.470753 0.031639
v -0.278136 2.470753 0.031639
v -0.309156 2.761037 0.032550
v -0.309207 2.737729 0.032477
v -0.478013 2.761037 0.032550
v -0.478065 2.737729 0.032477
v -0.514381 3.019472 0.033361
v -0.477443 3.019472 0.033362
v -0.515591 2.470753 0.031639
v -0.478654 2.470753 0.031639
v -0.514951 2.761037 0.032550
v -0.515002 2.737729 0.032477
v -0.089839 3.019464 0.035927
v -0.688515 3.019464 0.035927
v -0.789348 0.005144 -0.009222
v -0.782491 3.113759 0.000537
v -0.105394 2.268481 0.033570
v -0.676273 2.268481 0.033569
v -0.784116 2.376674 -0.001777
v -0.677595 1.669512 0.031689
v -0.785915 1.561543 -0.004336
v -0.106715 1.669512 0.031689
v -0.669173 0.814019 0.029003
v -0.787825 0.695742 -0.007054
v -0.118910 0.814019 0.029003
v -0.117523 1.443042 0.030978
v -0.091050 2.470745 0.034205
v -0.689725 2.470745 0.034204
v -0.667786 1.443042 0.030978
v -0.106715 1.669381 0.073340
v -0.105394 2.268350 0.075220
v -0.676273 2.268350 0.075220
v -0.677595 1.669381 0.073339
v -0.000782 0.695629 0.028632
v 0.001128 1.561431 0.031350
v -0.785915 1.561431 0.031349
v -0.787825 0.695629 0.028631
v -0.118910 0.813923 0.059493
v -0.117523 1.442946 0.061467
v -0.667786 1.442946 0.061467
v -0.669173 0.813923 0.059493
v -0.683424 0.110722 0.026795
v -0.107762 0.110722 0.026795
v -0.682367 0.589940 0.028300
v -0.106705 0.589940 0.028300
v -0.789348 0.005032 0.026463
v -0.002305 0.005032 0.026463
v -0.787825 0.695629 0.028631
v -0.000782 0.695629 0.028632
v -0.683424 0.110666 0.044595
v -0.107762 0.110666 0.044595
v -0.682367 0.589884 0.046099
v -0.106705 0.589884 0.046099
v 0.002926 2.376562 0.033909
v 0.004552 3.113647 0.036223
v -0.782491 3.113647 0.036222
v -0.784117 2.376562 0.033908
v -0.091050 2.470637 0.068659
v -0.089839 3.019356 0.070382
v -0.688515 3.019356 0.070381
v -0.689725 2.470637 0.068659
v 0.003787 2.766495 0.035133
v -0.783256 2.766495 0.035133
v -0.783256 2.766607 -0.000552
v -0.090409 2.761029 0.035116
v -0.689085 2.761029 0.035116
v -0.090409 2.760920 0.069570
v -0.689085 2.760920 0.069570
v -0.783325 2.735187 0.035034
v -0.783325 2.735299 -0.000651
v -0.689136 2.737721 0.035042
v -0.689136 2.737613 0.069497
v 0.003718 2.735187 0.035035
v -0.090461 2.737721 0.035043
v -0.090461 2.737613 0.069497
v -0.241398 3.113647 0.036223
v -0.243024 2.376562 0.033909
v -0.244823 1.561431 0.031350
v -0.246732 0.695629 0.028631
v -0.283794 2.268481 0.033569
v -0.285115 1.669512 0.031689
v -0.283794 2.268350 0.075220
v -0.285115 1.669381 0.073339
v -0.289480 1.443042 0.030978
v -0.290867 0.814019 0.029003
v -0.289480 1.442946 0.061467
v -0.290867 0.813923 0.059493
v -0.248256 0.005032 0.026463
v -0.246732 0.695629 0.028631
v -0.287656 0.110722 0.026795
v -0.286600 0.589940 0.028300
v -0.287656 0.110666 0.044595
v -0.286600 0.589884 0.046099
v -0.276925 3.019464 0.035927
v -0.278136 2.470745 0.034204
v -0.276925 3.019356 0.070381
v -0.278136 2.470637 0.068659
v -0.277495 2.760920 0.069570
v -0.277547 2.737613 0.069497
v -0.283021 3.113647 0.036223
v -0.284647 2.376562 0.033909
v -0.286445 1.561431 0.031350
v -0.288355 0.695629 0.028631
v -0.313984 2.268481 0.033569
v -0.315306 1.669512 0.031689
v -0.313984 2.268350 0.075220
v -0.315306 1.669381 0.073339
v -0.318581 1.443042 0.030978
v -0.319968 0.814019 0.029003
v -0.318581 1.442946 0.061467
v -0.319968 0.813923 0.059493
v -0.289878 0.005032 0.026463
v -0.288355 0.695629 0.028631
v -0.318100 0.110722 0.026795
v -0.317043 0.589940 0.028300
v -0.318100 0.110666 0.044595
v -0.317043 0.589884 0.046099
v -0.308586 3.019464 0.035927
v -0.309796 2.470745 0.034204
v -0.308586 3.019356 0.070381
v -0.309796 2.470637 0.068659
v -0.309156 2.760920 0.069570
v -0.309207 2.737613 0.069497
v -0.505007 3.113647 0.036223
v -0.506633 2.376562 0.033909
v -0.508432 1.561431 0.031350
v -0.510341 0.695629 0.028631
v -0.475001 2.268481 0.033569
v -0.476323 1.669512 0.031689
v -0.475002 2.268350 0.075220
v -0.476323 1.669381 0.073339
v -0.473783 1.443042 0.030978
v -0.475170 0.814019 0.029003
v -0.473783 1.442946 0.061467
v -0.475170 0.813923 0.059493
v -0.511865 0.005032 0.026463
v -0.510341 0.695629 0.028631
v -0.480466 0.110722 0.026795
v -0.479409 0.589940 0.028300
v -0.480466 0.110666 0.044595
v -0.479409 0.589884 0.046099
v -0.477443 3.019464 0.035927
v -0.478654 2.470745 0.034204
v -0.477443 3.019356 0.070381
v -0.478654 2.470637 0.068659
v -0.478013 2.760920 0.069570
v -0.478065 2.737613 0.069497
v -0.553567 3.113647 0.036223
v -0.555193 2.376562 0.033909
v -0.556991 1.561431 0.031350
v -0.558901 0.695629 0.028631
v -0.510224 2.268481 0.033569
v -0.511545 1.669512 0.031689
v -0.510224 2.268350 0.075220
v -0.511545 1.669381 0.073339
v -0.507733 1.443042 0.030978
v -0.509121 0.814019 0.029003
v -0.507733 1.442946 0.061467
v -0.509121 0.813923 0.059493
v -0.560424 0.005032 0.026463
v -0.558901 0.695629 0.028631
v -0.515984 0.110722 0.026795
v -0.514927 0.589940 0.028300
v -0.515984 0.110666 0.044595
v -0.514927 0.589884 0.046099
v -0.514381 3.019464 0.035927
v -0.515591 2.470745 0.034204
v -0.514381 3.019356 0.070381
v -0.515591 2.470637 0.068659
v -0.514951 2.760920 0.069570
v -0.515002 2.737613 0.069497
v -0.090461 2.737729 0.032477
v -0.090409 2.761037 0.032550
v -0.277495 2.761037 0.032550
v -0.689085 2.761037 0.032550
v -0.689136 2.737729 0.032477
v -0.277547 2.737729 0.032477
v -0.308586 3.019472 0.033362
v -0.276925 3.019472 0.033362
v -0.309796 2.470753 0.031639
v -0.278136 2.470753 0.031639
v -0.309156 2.761037 0.032550
v -0.309207 2.737729 0.032477
v -0.478013 2.761037 0.032550
v -0.478065 2.737729 0.032477
v -0.514381 3.019472 0.033361
v -0.477443 3.019472 0.033362
v -0.515591 2.470753 0.031639
v -0.478654 2.470753 0.031639
v -0.514951 2.761037 0.032550
v -0.515002 2.737729 0.032477
v -0.811307 0.005144 -0.009222
v -0.804450 3.113759 0.000537
v -0.806075 2.376674 -0.001777
v -0.807874 1.561543 -0.004336
v -0.809783 0.695742 -0.007054
v -0.805215 2.766607 -0.000552
v -0.805284 2.735298 -0.000651
v -0.789348 0.005032 0.076463
v -0.002305 0.005032 0.076463
v 0.004552 3.113647 0.086223
v -0.782491 3.113647 0.086222
vn -0.0000 1.0000 0.0031
vn 1.0000 -0.0022 -0.0000
vn -1.0000 0.0022 0.0000
vn 0.0000 -1.0000 -0.0031
vn 0.0000 0.0031 -1.0000
vn 0.0000 -1.0000 0.0000
vn 0.0000 1.0000 0.0000
vn 0.0000 -1.0000 -0.0032
usemtl Wood
s off
f 122//1 42//1 124//1
f 2//2 13//2 24//2
f 38//2 50//2 49//2
f 7//2 22//2 9//2
f 12//1 116//1 114//1
f 23//2 8//2 38//2
f 24//2 10//2 23//2
f 6//3 19//3 20//3
f 9//1 112//1 110//1
f 6//4 57//4 55//4
f 15//4 61//4 59//4
f 18//2 28//2 12//2
f 15//3 25//3 26//3
f 29//2 35//2 33//2
f 30//3 36//3 32//3
f 117//1 33//1 119//1
f 32//4 66//4 64//4
f 1//4 69//4 67//4
f 46//2 41//2 48//2
f 16//3 54//3 53//3
f 45//3 40//3 1//3
f 87//3 137//3 89//3
f 43//2 5//2 37//2
f 17//2 52//2 42//2
f 43//2 50//2 44//2
f 52//4 146//4 126//4
f 64//4 84//4 82//4
f 63//1 34//1 30//1
f 59//4 79//4 77//4
f 55//4 75//4 73//4
f 11//1 58//1 19//1
f 60//1 25//1 14//1
f 16//1 70//1 39//1
f 91//4 75//4 93//4
f 77//4 97//4 95//4
f 82//4 102//4 100//4
f 103//4 87//4 105//4
f 81//1 65//1 63//1
f 74//1 58//1 56//1
f 78//1 62//1 60//1
f 72//4 127//4 54//4
f 108//2 144//2 140//2
f 100//4 120//4 118//4
f 95//4 115//4 113//4
f 109//4 93//4 111//4
f 99//1 83//1 81//1
f 74//1 94//1 76//1
f 96//1 80//1 78//1
f 86//1 106//1 88//1
f 7//4 111//4 21//4
f 113//4 27//4 18//4
f 118//4 35//4 31//4
f 121//4 41//4 3//4
f 48//1 145//1 130//1
f 117//1 101//1 99//1
f 110//1 94//1 92//1
f 114//1 98//1 96//1
f 69//2 129//2 134//2
f 105//2 139//2 142//2
f 90//3 135//3 88//3
f 47//1 129//1 71//1
f 123//3 145//3 125//3
f 126//3 143//3 124//3
f 72//2 136//2 132//2
f 107//1 137//1 139//1
f 108//4 138//4 90//4
f 327//5 198//5 331//5
f 328//5 155//5 329//5
f 329//5 158//5 330//5
f 330//5 149//5 326//5
f 151//5 169//5 156//5
f 152//5 283//5 286//5
f 154//5 191//5 152//5
f 156//5 212//5 215//5
f 216//5 164//5 217//5
f 160//5 168//5 159//5
f 163//5 284//5 290//5
f 157//5 170//5 163//5
f 159//5 213//5 219//5
f 220//5 172//5 221//5
f 177//5 222//5 224//5
f 176//5 182//5 178//5
f 179//5 181//5 177//5
f 178//5 295//5 297//5
f 227//5 185//5 226//5
f 147//5 196//5 199//5
f 148//5 282//5 300//5
f 162//5 203//5 205//5
f 161//5 211//5 229//5
f 148//5 197//5 190//5
f 199//5 207//5 208//5
f 331//5 204//5 332//5
f 332//5 153//5 328//5
f 161//5 207//5 188//5
f 200//5 203//5 197//5
f 229//5 235//5 253//5
f 147//5 210//5 189//5
f 251//5 226//5 250//5
f 179//5 223//5 183//5
f 224//5 246//5 248//5
f 244//5 221//5 245//5
f 219//5 237//5 243//5
f 160//5 212//5 169//5
f 240//5 217//5 241//5
f 215//5 236//5 239//5
f 151//5 211//5 188//5
f 263//5 236//5 260//5
f 264//5 241//5 265//5
f 267//5 237//5 261//5
f 268//5 245//5 269//5
f 272//5 246//5 270//5
f 275//5 250//5 274//5
f 277//5 235//5 259//5
f 228//5 234//5 210//5
f 225//5 247//5 223//5
f 218//5 236//5 212//5
f 214//5 235//5 211//5
f 301//5 259//5 283//5
f 299//5 274//5 298//5
f 296//5 270//5 294//5
f 292//5 269//5 293//5
f 291//5 261//5 285//5
f 288//5 265//5 289//5
f 287//5 260//5 284//5
f 276//5 234//5 252//5
f 273//5 247//5 249//5
f 266//5 236//5 242//5
f 262//5 235//5 238//5
f 154//5 284//5 170//5
f 166//5 289//5 167//5
f 157//5 285//5 171//5
f 174//5 293//5 175//5
f 176//5 294//5 180//5
f 186//5 298//5 184//5
f 162//5 283//5 191//5
f 300//5 258//5 276//5
f 297//5 271//5 273//5
f 290//5 260//5 266//5
f 286//5 259//5 262//5
f 308//5 306//5 311//5
f 317//5 315//5 314//5
f 316//5 311//5 317//5
f 312//5 308//5 316//5
f 318//5 317//5 319//5
f 325//5 323//5 322//5
f 324//5 319//5 325//5
f 320//5 318//5 324//5
f 309//5 325//5 310//5
f 336//5 334//5 333//5
f 334//3 189//3 181//3
f 336//6 189//6 335//6
f 333//2 190//2 336//2
f 333//7 181//7 180//7
f 122//1 17//1 42//1
f 2//2 4//2 13//2
f 38//2 8//2 50//2
f 7//2 21//2 22//2
f 12//1 28//1 116//1
f 23//2 10//2 8//2
f 24//2 13//2 10//2
f 6//3 11//3 19//3
f 9//1 22//1 112//1
f 6//4 20//4 57//4
f 15//4 26//4 61//4
f 18//2 27//2 28//2
f 15//3 14//3 25//3
f 29//2 31//2 35//2
f 30//3 34//3 36//3
f 117//1 29//1 33//1
f 32//4 36//4 66//4
f 1//4 40//4 69//4
f 46//2 3//2 41//2
f 16//3 39//3 54//3
f 45//3 47//3 40//3
f 87//3 133//3 137//3
f 43//2 44//2 5//2
f 17//2 51//2 52//2
f 43//2 49//2 50//2
f 52//4 131//4 146//4
f 64//4 66//4 84//4
f 63//1 65//1 34//1
f 59//4 61//4 79//4
f 55//4 57//4 75//4
f 11//1 56//1 58//1
f 60//1 62//1 25//1
f 16//1 68//1 70//1
f 91//4 73//4 75//4
f 77//4 79//4 97//4
f 82//4 84//4 102//4
f 103//8 85//8 87//8
f 81//1 83//1 65//1
f 74//1 76//1 58//1
f 78//1 80//1 62//1
f 72//4 132//4 127//4
f 108//2 106//2 144//2
f 100//4 102//4 120//4
f 95//4 97//4 115//4
f 109//4 91//4 93//4
f 99//1 101//1 83//1
f 74//1 92//1 94//1
f 96//1 98//1 80//1
f 86//1 104//1 106//1
f 7//4 109//4 111//4
f 113//4 115//4 27//4
f 118//4 120//4 35//4
f 121//4 123//4 41//4
f 48//1 125//1 145//1
f 117//1 119//1 101//1
f 110//1 112//1 94//1
f 114//1 116//1 98//1
f 69//2 71//2 129//2
f 105//2 107//2 139//2
f 90//3 138//3 135//3
f 47//1 128//1 129//1
f 123//3 141//3 145//3
f 126//3 146//3 143//3
f 72//2 70//2 136//2
f 107//1 89//1 137//1
f 108//4 140//4 138//4
f 327//5 150//5 198//5
f 328//5 153//5 155//5
f 329//5 155//5 158//5
f 330//5 158//5 149//5
f 151//5 188//5 169//5
f 152//5 191//5 283//5
f 154//5 170//5 191//5
f 156//5 169//5 212//5
f 216//5 165//5 164//5
f 160//5 169//5 168//5
f 163//5 170//5 284//5
f 157//5 171//5 170//5
f 159//5 168//5 213//5
f 220//5 173//5 172//5
f 177//5 181//5 222//5
f 176//5 180//5 182//5
f 179//5 183//5 181//5
f 178//5 182//5 295//5
f 227//5 187//5 185//5
f 147//5 189//5 196//5
f 148//5 190//5 282//5
f 162//5 191//5 203//5
f 161//5 188//5 211//5
f 148//5 200//5 197//5
f 199//5 196//5 207//5
f 331//5 198//5 204//5
f 332//5 204//5 153//5
f 161//5 208//5 207//5
f 200//5 205//5 203//5
f 229//5 211//5 235//5
f 147//5 228//5 210//5
f 251//5 227//5 226//5
f 179//5 225//5 223//5
f 224//5 222//5 246//5
f 244//5 220//5 221//5
f 219//5 213//5 237//5
f 160//5 218//5 212//5
f 240//5 216//5 217//5
f 215//5 212//5 236//5
f 151//5 214//5 211//5
f 263//5 239//5 236//5
f 264//5 240//5 241//5
f 267//5 243//5 237//5
f 268//5 244//5 245//5
f 272//5 248//5 246//5
f 275//5 251//5 250//5
f 277//5 253//5 235//5
f 228//5 252//5 234//5
f 225//5 249//5 247//5
f 218//5 242//5 236//5
f 214//5 238//5 235//5
f 301//5 277//5 259//5
f 299//5 275//5 274//5
f 296//5 272//5 270//5
f 292//5 268//5 269//5
f 291//5 267//5 261//5
f 288//5 264//5 265//5
f 287//5 263//5 260//5
f 276//5 258//5 234//5
f 273//5 271//5 247//5
f 266//5 260//5 236//5
f 262//5 259//5 235//5
f 154//5 287//5 284//5
f 166//5 288//5 289//5
f 157//5 291//5 285//5
f 174//5 292//5 293//5
f 176//5 296//5 294//5
f 186//5 299//5 298//5
f 162//5 301//5 283//5
f 300//5 282//5 258//5
f 297//5 295//5 271//5
f 290//5 284//5 260//5
f 286//5 283//5 259//5
f 308//5 307//5 306//5
f 317//5 311//5 315//5
f 316//5 308//5 311//5
f 312//5 313//5 308//5
f 318//5 316//5 317//5
f 325//5 319//5 323//5
f 324//5 318//5 319//5
f 320//5 321//5 318//5
f 309//5 324//5 325//5
f 336//5 335//5 334//5
f 334//3 335//3 189//3
f 336//6 190//6 189//6
f 333//2 180//2 190//2
f 333//7 334//7 181//7
usemtl Glass
f 230//5 201//5 232//5
f 233//5 192//5 231//5
f 278//5 256//5 280//5
f 281//5 255//5 279//5
f 194//5 304//5 202//5
f 206//5 303//5 195//5
f 230//5 193//5 201//5
f 233//5 209//5 192//5
f 278//5 254//5 256//5
f 281//5 257//5 255//5
f 194//5 302//5 304//5
f 206//5 305//5 303//5
