# Blender v2.78 (sub 0) OBJ File: 'tardis_exterior.blend'
# www.blender.org
mtllib tardis_door_right.mtl
o Exterior.002_Cube.004
v 0.109059 0.105581 0.023530
v 0.688071 1.677981 0.028466
v 0.128529 1.677981 0.028466
v 0.690271 0.808061 0.025735
v 0.806427 0.691761 -0.010316
v 0.122491 0.808061 0.025735
v 0.104079 2.466922 0.030942
v 0.691667 1.441038 0.027722
v 0.128529 1.677858 0.067580
v 0.129795 2.251927 0.069382
v 0.808337 1.557450 0.028087
v 0.122491 0.807935 0.065877
v 0.690271 0.807935 0.065877
v 0.804904 0.001052 0.023201
v 0.811761 3.109666 0.032960
v 0.717211 3.015224 0.064844
v 0.716001 2.466821 0.063123
v 0.810995 2.762514 0.031871
v 0.104719 2.757039 0.031853
v 0.716641 2.757039 0.031853
v 0.104719 2.756938 0.064033
v 0.716590 2.733644 0.063960
v 0.104667 2.733744 0.031780
v 0.479509 2.252050 0.030268
v 0.477353 0.808061 0.025735
v 0.478750 1.440912 0.067864
v 0.477353 0.807935 0.065877
v 0.479837 0.587119 0.025041
v 0.479837 0.587048 0.047590
v 0.487740 3.015325 0.032664
v 0.487740 3.015224 0.064844
v 0.487170 2.756938 0.064034
v 0.487119 2.733643 0.063960
v 0.454529 2.252050 0.030268
v 0.453402 1.441038 0.027722
v 0.452006 0.808061 0.025735
v 0.452366 0.105581 0.023530
v 0.453428 0.587119 0.025041
v 0.453428 0.587048 0.047590
v 0.459212 2.466922 0.030942
v 0.460422 3.015224 0.064844
v 0.459801 2.733643 0.063960
v 0.293637 1.441038 0.027722
v 0.292241 0.808061 0.025735
v 0.293637 1.440912 0.067864
v 0.292241 0.807935 0.065877
v 0.288236 3.015325 0.032664
v 0.287026 2.466922 0.030942
v 0.288236 3.015224 0.064844
v 0.287666 2.756938 0.064033
v 0.287615 2.733643 0.063960
v 0.266295 1.677981 0.028466
v 0.266295 1.677858 0.067580
v 0.263681 1.441038 0.027722
v 0.262285 0.807935 0.065877
v 0.254704 0.105581 0.023530
v 0.255767 0.587119 0.025041
v 0.254704 0.105511 0.046078
v 0.255951 3.015224 0.064844
v 0.104667 2.733760 0.026940
v 0.104719 2.757054 0.027013
v 0.487170 2.757054 0.027014
v 0.459212 2.466938 0.026103
v 0.486530 2.466938 0.026103
v 0.287666 2.757054 0.027014
v 0.255381 2.757054 0.027014
v 0.255330 2.733760 0.026940
v 0.105288 3.015325 0.032664
v 0.700604 0.105581 0.023530
v 0.717211 3.015325 0.032664
v 0.804904 0.001164 -0.012484
v 0.811761 3.109778 -0.002725
v 0.129795 2.252050 0.030268
v 0.689337 2.252050 0.030268
v 0.810135 2.372693 -0.005039
v 0.808337 1.557562 -0.007598
v 0.123887 1.441038 0.027722
v 0.716001 2.466922 0.030943
v 0.689337 2.251927 0.069382
v 0.688071 1.677858 0.067580
v 0.110121 0.587119 0.025041
v 0.007731 1.557450 0.028087
v 0.701666 0.587119 0.025041
v 0.123887 1.440912 0.067864
v 0.691667 1.440912 0.067864
v 0.004297 0.001052 0.023201
v 0.806427 0.691649 0.025369
v 0.005821 0.691649 0.025369
v 0.109059 0.105511 0.046078
v 0.700604 0.105511 0.046078
v 0.701666 0.587048 0.047590
v 0.110121 0.587048 0.047590
v 0.009529 2.372581 0.030646
v 0.011155 3.109666 0.032960
v 0.810135 2.372581 0.030646
v 0.104079 2.466821 0.063123
v 0.105288 3.015224 0.064844
v 0.010389 2.762514 0.031870
v 0.810995 2.762626 -0.003814
v 0.716641 2.756938 0.064034
v 0.810926 2.731206 0.031772
v 0.810926 2.731318 -0.003913
v 0.716590 2.733745 0.031780
v 0.010320 2.731206 0.031772
v 0.104667 2.733643 0.063960
v 0.504676 0.001052 0.023201
v 0.511534 3.109666 0.032960
v 0.509908 2.372581 0.030646
v 0.508110 1.557450 0.028087
v 0.506200 0.691649 0.025369
v 0.478243 1.677981 0.028466
v 0.479509 2.251927 0.069382
v 0.478243 1.677858 0.067580
v 0.478750 1.441038 0.027722
v 0.478774 0.105581 0.023530
v 0.478774 0.105511 0.046078
v 0.486530 2.466922 0.030942
v 0.486530 2.466821 0.063123
v 0.468935 0.001052 0.023201
v 0.475792 3.109666 0.032960
v 0.474167 2.372581 0.030646
v 0.472368 1.557450 0.028087
v 0.470459 0.691649 0.025369
v 0.453263 1.677981 0.028466
v 0.454529 2.251927 0.069382
v 0.453263 1.677858 0.067580
v 0.453402 1.440912 0.067864
v 0.452006 0.807935 0.065877
v 0.452366 0.105511 0.046078
v 0.460422 3.015325 0.032664
v 0.459212 2.466821 0.063123
v 0.459852 2.756938 0.064034
v 0.243656 0.001052 0.023201
v 0.250513 3.109666 0.032960
v 0.248887 2.372581 0.030646
v 0.247089 1.557450 0.028087
v 0.245180 0.691649 0.025369
v 0.297082 2.252050 0.030268
v 0.295816 1.677981 0.028466
v 0.297082 2.251927 0.069382
v 0.295816 1.677858 0.067580
v 0.285914 0.105581 0.023530
v 0.286976 0.587119 0.025041
v 0.285914 0.105511 0.046078
v 0.286976 0.587048 0.047590
v 0.287026 2.466821 0.063123
v 0.201416 0.001052 0.023201
v 0.208274 3.109666 0.032960
v 0.206648 2.372581 0.030646
v 0.204850 1.557450 0.028087
v 0.202940 0.691649 0.025369
v 0.267561 2.252050 0.030268
v 0.267561 2.251927 0.069382
v 0.262285 0.808061 0.025735
v 0.263681 1.440912 0.067864
v 0.255767 0.587048 0.047590
v 0.255951 3.015325 0.032664
v 0.254741 2.466922 0.030942
v 0.254741 2.466821 0.063123
v 0.255381 2.756938 0.064033
v 0.255330 2.733643 0.063960
v 0.716641 2.757054 0.027014
v 0.716590 2.733760 0.026941
v 0.487119 2.733760 0.026941
v 0.460422 3.015340 0.027825
v 0.487740 3.015340 0.027825
v 0.459852 2.757054 0.027014
v 0.459801 2.733760 0.026941
v 0.287615 2.733760 0.026940
v 0.255951 3.015340 0.027824
v 0.288236 3.015340 0.027824
v 0.254741 2.466938 0.026103
v 0.287026 2.466938 0.026103
v 0.826863 0.001164 -0.012484
v 0.833720 3.109778 -0.002725
v 0.832094 2.372693 -0.005039
v 0.830296 1.557562 -0.007598
v 0.828386 0.691761 -0.010316
v 0.832954 2.762626 -0.003814
v 0.832885 2.731318 -0.003913
v 0.804904 0.001052 0.073201
v 0.811761 3.109666 0.082960
v 0.004297 0.001052 0.073201
v 0.011155 3.109666 0.082960
v 0.175211 1.729980 0.063939
v 0.176248 2.199829 0.065414
v 0.462472 2.199829 0.065414
v 0.634207 2.199829 0.065414
v 0.633171 1.729980 0.063939
v 0.461436 1.729980 0.063939
v 0.442028 2.199829 0.065414
v 0.440992 1.729980 0.063939
v 0.313165 2.199829 0.065414
v 0.312128 1.729980 0.063939
v 0.289003 2.199829 0.065414
v 0.287967 1.729980 0.063939
v 0.303621 1.860090 0.064299
v 0.304077 2.069719 0.065054
v 0.505798 2.069719 0.065054
v 0.505342 1.860090 0.064299
vt 0.0000 0.0000
vt 0.0000 0.0000
vt 0.0000 0.0000
vt 0.0000 0.0000
vt 0.0000 0.0000
vt 0.0000 0.0000
vt 0.0000 0.0000
vt 0.0000 0.0000
vt 0.0000 0.0000
vt 0.0000 0.0000
vt 0.0000 0.0000
vt 0.0000 0.0000
vt 0.0000 0.0000
vt 0.0000 0.0000
vt 0.0000 0.0000
vt 0.0000 0.0000
vt 0.0000 0.0000
vt 0.0000 0.0000
vt 0.0000 0.0000
vt 0.0000 0.0000
vt 0.0000 0.0000
vt 0.0000 0.0000
vt 0.0000 0.0000
vt 0.0000 0.0000
vt 0.0000 0.0000
vt 0.0000 0.0000
vt 0.0000 0.0000
vt 0.0000 0.0000
vt 0.0000 0.0000
vt 0.0000 0.0000
vt 0.0000 0.0000
vt 0.0000 0.0000
vt 0.0000 0.0000
vt 0.0000 0.0000
vt 0.0000 0.0000
vt 0.0000 0.0000
vt 0.0000 0.0000
vt 0.0000 0.0000
vt 0.0000 0.0000
vt 0.0000 0.0000
vt 0.0000 0.0000
vt 0.0000 0.0000
vt 0.0000 0.0000
vt 0.0000 0.0000
vt 0.0000 0.0000
vt 0.0000 0.0000
vt 0.0000 0.0000
vt 0.0000 0.0000
vt 0.0000 0.0000
vt 0.0000 0.0000
vt 0.0000 0.0000
vt 0.0000 0.0000
vt 0.0000 0.0000
vt 0.0000 0.0000
vt 0.0000 0.0000
vt 0.0000 0.0000
vt 0.0000 0.0000
vt 0.0000 0.0000
vt 0.0000 0.0000
vt 0.0000 0.0000
vt 0.0000 0.0000
vt 0.0000 0.0000
vt 0.0000 0.0000
vt 0.0000 0.0000
vt 0.0000 0.0000
vt 0.0000 0.0000
vt 0.0000 0.0000
vt 0.0000 0.0000
vt 0.0000 0.0000
vt 0.0000 0.0000
vt 0.0000 0.0000
vt 0.0000 0.0000
vt 0.0000 0.0000
vt 0.0000 0.0000
vt 0.0000 0.0000
vt 0.0000 0.0000
vt 0.0000 0.0000
vt 0.0000 0.0000
vt 0.0000 0.0000
vt 0.0000 0.0000
vt 0.0000 0.0000
vt 0.0000 0.0000
vt 0.0000 0.0000
vt 0.0000 0.0000
vt 0.0000 0.0000
vt 0.0000 0.0000
vt 0.0000 0.0000
vt 0.0000 0.0000
vt 0.0000 0.0000
vt 0.0000 0.0000
vt 0.0000 0.0000
vt 0.0000 0.0000
vt 0.0000 0.0000
vt 0.0000 0.0000
vt 0.0000 0.0000
vt 0.0000 0.0000
vt 0.0000 0.0000
vt 0.0000 0.0000
vt 0.0000 0.0000
vt 0.0000 0.0000
vt 0.0000 0.0000
vt 0.0000 0.0000
vt 0.0000 0.0000
vt 0.0000 0.0000
vt 0.0000 0.0000
vt 0.0000 0.0000
vt 0.0000 0.0000
vt 0.0000 0.0000
vt 0.0000 0.0000
vt 0.0000 0.0000
vt 0.0000 0.0000
vt 0.0000 0.0000
vt 0.0000 0.0000
vt 0.0000 0.0000
vt 0.0000 0.0000
vt 0.0000 0.0000
vt 0.0000 0.0000
vt 0.0000 0.0000
vt 0.0000 0.0000
vt 0.0000 0.0000
vt 0.0000 0.0000
vt 0.0000 0.0000
vt 0.0000 0.0000
vt 0.0000 0.0000
vt 0.0000 0.0000
vt 0.0000 0.0000
vt 0.0000 0.0000
vt 0.0000 0.0000
vt 0.0000 0.0000
vt 0.0000 0.0000
vt 0.0000 0.0000
vt 0.0000 0.0000
vt 0.0000 0.0000
vt 0.0000 0.0000
vt 0.0000 0.0000
vt 0.0000 0.0000
vt 0.0000 0.0000
vt 0.0000 0.0000
vt 0.0000 0.0000
vt 0.0000 0.0000
vt 0.0000 0.0000
vt 0.0000 0.0000
vt 0.0000 0.0000
vt 0.0000 0.0000
vt 0.0000 0.0000
vt 0.0000 0.0000
vt 0.0000 0.0000
vt 0.0000 0.0000
vt 0.0000 0.0000
vt 0.0000 0.0000
vt 0.0000 0.0000
vt 0.0000 0.0000
vt 0.0000 0.0000
vt 0.0000 0.0000
vt 0.0000 0.0000
vt 0.0000 0.0000
vt 0.0000 0.0000
vt 0.0000 0.0000
vt 0.0000 0.0000
vt 0.0000 0.0000
vt 0.0000 0.0000
vt 0.0000 0.0000
vt 0.0000 0.0000
vt 0.0000 0.0000
vt 0.0000 0.0000
vt 0.0000 0.0000
vt 0.0000 0.0000
vt 0.0000 0.0000
vt 0.0000 0.0000
vt 0.0000 0.0000
vt 0.0000 0.0000
vt 0.0000 0.0000
vt 0.0000 0.0000
vt 0.0000 0.0000
vt 0.0000 0.0000
vt 0.0000 0.0000
vt 0.0000 0.0000
vt 0.0000 0.0000
vt 0.0000 0.0000
vt 0.0000 0.0000
vt 0.0000 0.0000
vt 0.0000 0.0000
vt 0.0000 0.0000
vt 0.0000 0.0000
vt 0.0000 0.0000
vt 0.0000 0.0000
vt 0.0000 0.0000
vt 0.0000 0.0000
vt 0.0000 0.0000
vt 0.0000 0.0000
vt 0.0000 0.0000
vt 0.0000 0.0000
vt 0.0000 0.0000
vt 0.0000 0.0000
vt 0.0000 0.0000
vt 0.0000 0.0000
vt 0.0000 0.0000
vt 0.0000 0.0000
vt 0.0000 0.0000
vt 0.0000 0.0000
vt 0.9725 0.9978
vt 0.0001 0.0022
vt 0.9725 0.0001
vt 0.0001 0.9999
vn -0.0000 1.0000 0.0031
vn -1.0000 0.0022 0.0000
vn 0.0000 -1.0000 -0.0031
vn 1.0000 -0.0022 -0.0000
vn 0.0000 -1.0000 -0.0032
vn 0.0000 0.0031 -1.0000
vn 0.0000 -0.0031 1.0000
vn 0.0000 1.0000 0.0000
vn 0.0000 -1.0000 0.0000
vn -0.0004 0.0031 -1.0000
vn 0.0690 0.0030 -0.9976
vn 0.0000 0.0759 -0.9971
vn 0.0000 -0.0697 -0.9976
vn -0.0814 0.0033 -0.9967
vn 0.0000 0.0028 -1.0000
vn 0.0008 0.0036 -1.0000
vn 0.0000 0.0036 -1.0000
usemtl Wood
s off
f 158/1/1 96/2/1 159/3/1
f 15/4/2 99/5/2 18/6/2
f 95/7/2 76/8/2 11/9/2
f 52/10/1 9/11/1 53/12/1
f 8/13/3 26/14/3 114/15/3
f 11/9/2 5/16/2 87/17/2
f 87/17/2 71/18/2 14/19/2
f 1/20/4 92/21/4 89/22/4
f 74/23/3 112/24/3 24/25/3
f 2/26/2 79/27/2 74/23/2
f 3/28/4 10/29/4 9/11/4
f 4/30/2 85/31/2 8/13/2
f 77/32/4 12/33/4 6/34/4
f 154/35/1 12/33/1 55/36/1
f 1/20/1 58/37/1 56/38/1
f 83/39/3 29/40/3 28/41/3
f 69/42/2 91/43/2 83/39/2
f 70/44/3 31/45/3 30/46/3
f 78/47/2 22/48/2 103/49/2
f 19/50/4 97/51/4 21/52/4
f 20/53/2 16/54/2 70/44/2
f 33/55/4 64/56/4 164/57/4
f 18/6/2 102/58/2 101/59/2
f 101/59/2 75/60/2 95/7/2
f 7/61/4 105/62/4 96/2/4
f 161/63/2 172/64/2 159/3/2
f 49/65/4 65/66/4 171/67/4
f 100/68/1 62/69/1 32/70/1
f 28/41/3 39/71/3 38/72/3
f 115/73/1 90/74/1 69/42/1
f 4/30/1 27/75/1 13/76/1
f 24/25/3 125/77/3 34/78/3
f 114/15/3 127/79/3 35/80/3
f 111/81/1 80/82/1 2/26/1
f 78/47/1 118/83/1 17/84/1
f 35/80/3 45/85/3 43/86/3
f 34/78/3 140/87/3 138/88/3
f 38/72/3 145/89/3 143/90/3
f 130/91/3 49/65/3 47/92/3
f 51/93/5 168/94/5 42/95/5
f 37/96/1 116/97/1 115/73/1
f 36/98/1 27/75/1 25/99/1
f 111/81/1 126/100/1 113/101/1
f 59/102/2 66/103/2 160/104/2
f 50/105/1 167/106/1 65/66/1
f 143/90/3 156/107/3 57/108/3
f 138/88/3 153/109/3 152/110/3
f 43/86/3 155/111/3 54/112/3
f 142/113/1 129/114/1 37/96/1
f 44/115/1 128/116/1 36/98/1
f 139/117/1 126/100/1 124/118/1
f 40/119/1 146/120/1 131/121/1
f 54/112/3 84/122/3 77/32/3
f 152/110/3 10/29/3 73/123/3
f 57/108/3 92/21/3 81/124/3
f 51/93/4 173/125/4 169/126/4
f 56/38/1 144/127/1 142/113/1
f 154/35/1 46/128/1 44/115/1
f 52/10/1 141/129/1 139/117/1
f 41/130/2 167/106/2 132/131/2
f 33/55/3 163/132/3 22/48/3
f 31/45/4 62/69/4 166/133/4
f 42/95/2 63/134/2 131/121/2
f 21/52/1 66/103/1 61/135/1
f 105/62/3 67/136/3 161/63/3
f 3/28/6 93/137/6 73/123/6
f 73/123/6 149/138/6 152/110/6
f 74/23/6 11/9/6 2/26/6
f 2/26/6 109/139/6 111/81/6
f 6/34/6 82/140/6 77/32/6
f 77/32/6 150/141/6 54/112/6
f 8/13/6 87/17/6 4/30/6
f 4/30/6 110/142/6 25/99/6
f 26/14/6 13/76/6 27/75/6
f 69/42/6 106/143/6 115/73/6
f 83/39/6 14/19/6 69/42/6
f 1/20/6 88/144/6 81/124/6
f 81/124/6 151/145/6 57/108/6
f 29/40/6 90/74/6 116/97/6
f 7/61/6 104/146/6 23/147/6
f 68/148/6 148/149/6 157/150/6
f 70/44/6 18/6/6 20/53/6
f 78/47/6 108/151/6 117/152/6
f 20/53/6 101/59/6 103/49/6
f 68/148/6 98/153/6 94/154/6
f 78/47/6 101/59/6 95/7/6
f 19/50/6 104/146/6 98/153/6
f 117/152/6 121/155/6 40/119/6
f 70/44/6 107/156/6 15/4/6
f 39/71/6 116/97/6 129/114/6
f 83/39/6 110/142/6 87/17/6
f 115/73/6 119/157/6 37/96/6
f 127/79/6 27/75/6 128/116/6
f 25/99/6 123/158/6 36/98/6
f 8/13/6 109/139/6 11/9/6
f 111/81/6 122/159/6 124/118/6
f 74/23/6 108/151/6 95/7/6
f 139/117/6 122/159/6 136/160/6
f 44/115/6 123/158/6 137/161/6
f 45/85/6 128/116/6 46/128/6
f 142/113/6 119/157/6 133/162/6
f 145/89/6 129/114/6 144/127/6
f 48/163/6 121/155/6 135/164/6
f 30/46/6 120/165/6 107/156/6
f 28/41/6 123/158/6 110/142/6
f 114/15/6 122/159/6 109/139/6
f 24/25/6 121/155/6 108/151/6
f 158/1/6 135/164/6 149/138/6
f 156/107/6 144/127/6 58/37/6
f 56/38/6 133/162/6 147/166/6
f 155/111/6 46/128/6 55/36/6
f 154/35/6 137/161/6 151/145/6
f 52/10/6 136/160/6 150/141/6
f 47/92/6 120/165/6 130/91/6
f 143/90/6 123/158/6 38/72/6
f 43/86/6 122/159/6 35/80/6
f 138/88/6 121/155/6 34/78/6
f 3/28/6 150/141/6 82/140/6
f 6/34/6 151/145/6 88/144/6
f 84/122/6 55/36/6 12/33/6
f 1/20/6 147/166/6 86/167/6
f 92/21/6 58/37/6 89/22/6
f 7/61/6 149/138/6 93/137/6
f 157/150/6 134/168/6 47/92/6
f 57/108/6 137/161/6 143/90/6
f 54/112/6 136/160/6 43/86/6
f 152/110/6 135/164/6 138/88/6
f 62/69/6 163/132/6 164/57/6
f 168/94/6 64/56/6 63/134/6
f 167/106/6 164/57/6 168/94/6
f 165/169/6 62/69/6 167/106/6
f 65/66/6 168/94/6 169/126/6
f 67/136/6 173/125/6 172/64/6
f 66/103/6 169/126/6 67/136/6
f 170/170/6 65/66/6 66/103/6
f 61/135/6 67/136/6 60/171/6
f 102/58/6 176/172/6 75/60/6
f 99/5/6 180/173/6 102/58/6
f 5/16/6 174/174/6 71/18/6
f 76/8/6 178/175/6 5/16/6
f 75/60/6 177/176/6 76/8/6
f 72/177/6 179/178/6 99/5/6
f 68/148/3 59/102/3 97/51/3
f 181/179/7 184/180/7 183/181/7
f 182/182/8 94/154/8 184/180/8
f 183/181/2 94/154/2 86/167/2
f 86/167/9 181/179/9 183/181/9
f 181/179/4 15/4/4 182/182/4
f 189/183/10 199/184/10 188/185/10
f 80/82/11 188/185/11 79/27/11
f 153/109/12 186/186/12 10/29/12
f 141/129/13 196/187/13 194/188/13
f 113/101/13 189/183/13 80/82/13
f 53/12/13 185/189/13 196/187/13
f 10/29/14 185/189/14 9/11/14
f 125/77/12 187/190/12 191/191/12
f 125/77/12 193/192/12 140/87/12
f 112/24/12 188/185/12 187/190/12
f 126/100/13 190/193/13 113/101/13
f 140/87/12 195/194/12 153/109/12
f 126/100/13 194/188/13 192/195/13
f 186/186/10 197/196/10 185/189/10
f 189/183/15 197/196/15 200/197/15
f 186/186/15 199/184/15 198/198/15
f 158/1/1 7/61/1 96/2/1
f 15/4/2 72/177/2 99/5/2
f 95/7/2 75/60/2 76/8/2
f 52/10/1 3/28/1 9/11/1
f 8/13/3 85/31/3 26/14/3
f 11/9/2 76/8/2 5/16/2
f 87/17/2 5/16/2 71/18/2
f 1/20/4 81/124/4 92/21/4
f 74/23/3 79/27/3 112/24/3
f 2/26/2 80/82/2 79/27/2
f 3/28/4 73/123/4 10/29/4
f 4/30/2 13/76/2 85/31/2
f 77/32/4 84/122/4 12/33/4
f 154/35/1 6/34/1 12/33/1
f 1/20/1 89/22/1 58/37/1
f 83/39/3 91/43/3 29/40/3
f 69/42/2 90/74/2 91/43/2
f 70/44/3 16/54/3 31/45/3
f 78/47/2 17/84/2 22/48/2
f 19/50/4 68/148/4 97/51/4
f 20/53/2 100/68/2 16/54/2
f 33/55/4 118/83/4 64/56/4
f 18/6/2 99/5/2 102/58/2
f 101/59/2 102/58/2 75/60/2
f 7/61/4 23/147/4 105/62/4
f 161/63/2 67/136/2 172/64/2
f 49/65/4 50/105/4 65/66/4
f 100/68/1 162/199/1 62/69/1
f 28/41/3 29/40/3 39/71/3
f 115/73/1 116/97/1 90/74/1
f 4/30/1 25/99/1 27/75/1
f 24/25/3 112/24/3 125/77/3
f 114/15/3 26/14/3 127/79/3
f 111/81/1 113/101/1 80/82/1
f 78/47/1 117/152/1 118/83/1
f 35/80/3 127/79/3 45/85/3
f 34/78/3 125/77/3 140/87/3
f 38/72/3 39/71/3 145/89/3
f 130/91/3 41/130/3 49/65/3
f 51/93/3 169/126/3 168/94/3
f 37/96/1 129/114/1 116/97/1
f 36/98/1 128/116/1 27/75/1
f 111/81/1 124/118/1 126/100/1
f 59/102/2 170/170/2 66/103/2
f 50/105/1 132/131/1 167/106/1
f 143/90/3 145/89/3 156/107/3
f 138/88/3 140/87/3 153/109/3
f 43/86/3 45/85/3 155/111/3
f 142/113/1 144/127/1 129/114/1
f 44/115/1 46/128/1 128/116/1
f 139/117/1 141/129/1 126/100/1
f 40/119/1 48/163/1 146/120/1
f 54/112/3 155/111/3 84/122/3
f 152/110/3 153/109/3 10/29/3
f 57/108/3 156/107/3 92/21/3
f 51/93/4 146/120/4 173/125/4
f 56/38/1 58/37/1 144/127/1
f 154/35/1 55/36/1 46/128/1
f 52/10/1 53/12/1 141/129/1
f 41/130/2 165/169/2 167/106/2
f 33/55/3 164/57/3 163/132/3
f 31/45/4 32/70/4 62/69/4
f 42/95/2 168/94/2 63/134/2
f 21/52/1 160/104/1 66/103/1
f 105/62/3 60/171/3 67/136/3
f 3/28/6 82/140/6 93/137/6
f 73/123/6 93/137/6 149/138/6
f 74/23/6 95/7/6 11/9/6
f 2/26/6 11/9/6 109/139/6
f 6/34/6 88/144/6 82/140/6
f 77/32/6 82/140/6 150/141/6
f 8/13/6 11/9/6 87/17/6
f 4/30/6 87/17/6 110/142/6
f 26/14/6 85/31/6 13/76/6
f 69/42/6 14/19/6 106/143/6
f 83/39/6 87/17/6 14/19/6
f 1/20/6 86/167/6 88/144/6
f 81/124/6 88/144/6 151/145/6
f 29/40/6 91/43/6 90/74/6
f 7/61/6 93/137/6 104/146/6
f 68/148/6 94/154/6 148/149/6
f 70/44/6 15/4/6 18/6/6
f 78/47/6 95/7/6 108/151/6
f 20/53/6 18/6/6 101/59/6
f 68/148/6 19/50/6 98/153/6
f 78/47/6 103/49/6 101/59/6
f 19/50/6 23/147/6 104/146/6
f 117/152/6 108/151/6 121/155/6
f 70/44/6 30/46/6 107/156/6
f 39/71/6 29/40/6 116/97/6
f 83/39/6 28/41/6 110/142/6
f 115/73/6 106/143/6 119/157/6
f 127/79/6 26/14/6 27/75/6
f 25/99/6 110/142/6 123/158/6
f 8/13/6 114/15/6 109/139/6
f 111/81/6 109/139/6 122/159/6
f 74/23/6 24/25/6 108/151/6
f 139/117/6 124/118/6 122/159/6
f 44/115/6 36/98/6 123/158/6
f 45/85/6 127/79/6 128/116/6
f 142/113/6 37/96/6 119/157/6
f 145/89/6 39/71/6 129/114/6
f 48/163/6 40/119/6 121/155/6
f 30/46/6 130/91/6 120/165/6
f 28/41/6 38/72/6 123/158/6
f 114/15/6 35/80/6 122/159/6
f 24/25/6 34/78/6 121/155/6
f 158/1/6 48/163/6 135/164/6
f 156/107/6 145/89/6 144/127/6
f 56/38/6 142/113/6 133/162/6
f 155/111/6 45/85/6 46/128/6
f 154/35/6 44/115/6 137/161/6
f 52/10/6 139/117/6 136/160/6
f 47/92/6 134/168/6 120/165/6
f 143/90/6 137/161/6 123/158/6
f 43/86/6 136/160/6 122/159/6
f 138/88/6 135/164/6 121/155/6
f 3/28/6 52/10/6 150/141/6
f 6/34/6 154/35/6 151/145/6
f 84/122/6 155/111/6 55/36/6
f 1/20/6 56/38/6 147/166/6
f 92/21/6 156/107/6 58/37/6
f 7/61/6 158/1/6 149/138/6
f 157/150/6 148/149/6 134/168/6
f 57/108/6 151/145/6 137/161/6
f 54/112/6 150/141/6 136/160/6
f 152/110/6 149/138/6 135/164/6
f 62/69/6 162/199/6 163/132/6
f 168/94/6 164/57/6 64/56/6
f 167/106/6 62/69/6 164/57/6
f 165/169/6 166/133/6 62/69/6
f 65/66/6 167/106/6 168/94/6
f 67/136/6 169/126/6 173/125/6
f 66/103/6 65/66/6 169/126/6
f 170/170/6 171/67/6 65/66/6
f 61/135/6 66/103/6 67/136/6
f 102/58/6 180/173/6 176/172/6
f 99/5/6 179/178/6 180/173/6
f 5/16/6 178/175/6 174/174/6
f 76/8/6 177/176/6 178/175/6
f 75/60/6 176/172/6 177/176/6
f 72/177/6 175/200/6 179/178/6
f 68/148/3 170/170/3 59/102/3
f 181/179/7 182/182/7 184/180/7
f 182/182/8 15/4/8 94/154/8
f 183/181/2 184/180/2 94/154/2
f 86/167/9 14/19/9 181/179/9
f 181/179/4 14/19/4 15/4/4
f 189/183/16 200/197/16 199/184/16
f 80/82/11 189/183/11 188/185/11
f 153/109/12 195/194/12 186/186/12
f 141/129/13 53/12/13 196/187/13
f 113/101/13 190/193/13 189/183/13
f 53/12/13 9/11/13 185/189/13
f 10/29/14 186/186/14 185/189/14
f 125/77/12 112/24/12 187/190/12
f 125/77/12 191/191/12 193/192/12
f 112/24/12 79/27/12 188/185/12
f 126/100/13 192/195/13 190/193/13
f 140/87/12 193/192/12 195/194/12
f 126/100/13 141/129/13 194/188/13
f 186/186/16 198/198/16 197/196/16
f 189/183/15 185/189/15 197/196/15
f 186/186/15 188/185/15 199/184/15
usemtl Glass
f 31/45/6 100/68/6 32/70/6
f 33/55/6 17/84/6 118/83/6
f 49/65/6 132/131/6 50/105/6
f 51/93/6 131/121/6 146/120/6
f 97/51/6 160/104/6 21/52/6
f 105/62/6 159/3/6 96/2/6
f 31/45/6 16/54/6 100/68/6
f 33/55/6 22/48/6 17/84/6
f 49/65/6 41/130/6 132/131/6
f 51/93/6 42/95/6 131/121/6
f 97/51/6 59/102/6 160/104/6
f 105/62/6 161/63/6 159/3/6
usemtl StJohn
f 198/201/17 200/202/17 197/203/17
f 198/201/17 199/204/17 200/202/17
